<svg width="25" height="24" viewBox="0 0 25 24" fill="none" xmlns="http://www.w3.org/2000/svg">
                    <path d="M12.5 3C7.52991 3 3.5 7.02991 3.5 12C3.5 16.9701 7.52991 21 12.5 21C17.4701 21 21.5 16.9701 21.5 12C21.5 7.02991 17.4701 3 12.5 3ZM16.3571 12.4821C16.3571 12.5705 16.2848 12.6429 16.1964 12.6429H13.1429V15.6964C13.1429 15.7848 13.0705 15.8571 12.9821 15.8571H12.0179C11.9295 15.8571 11.8571 15.7848 11.8571 15.6964V12.6429H8.80357C8.71518 12.6429 8.64286 12.5705 8.64286 12.4821V11.5179C8.64286 11.4295 8.71518 11.3571 8.80357 11.3571H11.8571V8.30357C11.8571 8.21518 11.9295 8.14286 12.0179 8.14286H12.9821C13.0705 8.14286 13.1429 8.21518 13.1429 8.30357V11.3571H16.1964C16.2848 11.3571 16.3571 11.4295 16.3571 11.5179V12.4821Z" fill="white"/>
                </svg>