<svg width="25" height="24" viewBox="0 0 25 24" fill="none" xmlns="http://www.w3.org/2000/svg">
                        <g clip-path="url(#clip0_4_202)">
                        <path d="M10.5 22C10.2348 22 9.98043 21.8946 9.79289 21.7071C9.60536 21.5196 9.5 21.2652 9.5 21V11C9.5 9 10.5 7.25 11.5 7V2.5C11.5 2.36739 11.5527 2.24021 11.6464 2.14645C11.7402 2.05268 11.8674 2 12 2H13C13.1326 2 13.2598 2.05268 13.3536 2.14645C13.4473 2.24021 13.5 2.36739 13.5 2.5V7C14.5 7.25 15.5 9 15.5 11V21C15.5 21.2652 15.3946 21.5196 15.2071 21.7071C15.0196 21.8946 14.7652 22 14.5 22H10.5Z" fill="white"/>
                        <path d="M4.5 22C4.23478 22 3.98043 21.8946 3.79289 21.7071C3.60536 21.5196 3.5 21.2652 3.5 21V11C3.5 9 4.5 7.25 5.5 7V2.5C5.5 2.36739 5.55268 2.24021 5.64645 2.14645C5.74021 2.05268 5.86739 2 6 2H7C7.13261 2 7.25979 2.05268 7.35355 2.14645C7.44732 2.24021 7.5 2.36739 7.5 2.5V7C8.5 7.25 9.5 9 9.5 11V21C9.5 21.2652 9.39464 21.5196 9.20711 21.7071C9.01957 21.8946 8.76522 22 8.5 22H4.5Z" fill="white"/>
                        <path d="M19.5 22C19.2348 22 18.9804 21.8946 18.7929 21.7071C18.6054 21.5196 18.5 21.2652 18.5 21V11C18.5 9 19.5 7.25 20.5 7V2.5C20.5 2.36739 20.5527 2.24021 20.6464 2.14645C20.7402 2.05268 20.8674 2 21 2H22C22.1326 2 22.2598 2.05268 22.3536 2.14645C22.4473 2.24021 22.5 2.36739 22.5 2.5V7C23.5 7.25 24.5 9 24.5 11V21C24.5 21.2652 24.3946 21.5196 24.2071 21.7071C24.0196 21.8946 23.7652 22 23.5 22H19.5Z" fill="white"/>
                        </g>
                        <defs>
                        <clipPath id="clip0_4_202">
                        <rect width="24" height="24" fill="white" transform="translate(0.5)"/>
                        </clipPath>
                        </defs>
                    </svg>