<svg width="17" height="16" viewBox="0 0 17 16" fill="none" xmlns="http://www.w3.org/2000/svg">
<path d="M9.60137 1.53033C9.89427 1.23744 9.89427 0.762563 9.60137 0.46967C9.30848 0.176777 8.83361 0.176777 8.54071 0.46967L9.60137 1.53033ZM1.46965 7.54074L0.939317 8.07107L1.99998 9.13173L2.53031 8.6014L1.46965 7.54074ZM8.54071 0.46967L1.46965 7.54074L2.53031 8.6014L9.60137 1.53033L8.54071 0.46967Z" fill="white"/>
<path d="M8.54071 15.6725C8.83361 15.9654 9.30848 15.9654 9.60137 15.6725C9.89427 15.3796 9.89427 14.9047 9.60137 14.6118L8.54071 15.6725ZM2.53031 7.54075L1.99998 7.01042L0.939318 8.07108L1.46965 8.60141L2.53031 7.54075ZM9.60137 14.6118L2.53031 7.54075L1.46965 8.60141L8.54071 15.6725L9.60137 14.6118Z" fill="white"/>
</svg>
