<svg width="25" height="24" viewBox="0 0 25 24" fill="none" xmlns="http://www.w3.org/2000/svg">
                        <path d="M10.5 3H4.5C4.23478 3 3.98043 3.10536 3.79289 3.29289C3.60536 3.48043 3.5 3.73478 3.5 4V10C3.5 10.2652 3.60536 10.5196 3.79289 10.7071C3.98043 10.8946 4.23478 11 4.5 11H10.5C10.7652 11 11.0196 10.8946 11.2071 10.7071C11.3946 10.5196 11.5 10.2652 11.5 10V4C11.5 3.73478 11.3946 3.48043 11.2071 3.29289C11.0196 3.10536 10.7652 3 10.5 3ZM20.5 13H14.5C14.2348 13 13.9804 13.1054 13.7929 13.2929C13.6054 13.4804 13.5 13.7348 13.5 14V20C13.5 20.2652 13.6054 20.5196 13.7929 20.7071C13.9804 20.8946 14.2348 21 14.5 21H20.5C20.7652 21 21.0196 20.8946 21.2071 20.7071C21.3946 20.5196 21.5 20.2652 21.5 20V14C21.5 13.7348 21.3946 13.4804 21.2071 13.2929C21.0196 13.1054 20.7652 13 20.5 13ZM17.5 3C15.294 3 13.5 4.794 13.5 7C13.5 9.206 15.294 11 17.5 11C19.706 11 21.5 9.206 21.5 7C21.5 4.794 19.706 3 17.5 3ZM7.5 13C5.294 13 3.5 14.794 3.5 17C3.5 19.206 5.294 21 7.5 21C9.706 21 11.5 19.206 11.5 17C11.5 14.794 9.706 13 7.5 13Z" fill="white"/>
                    </svg>