<svg width="30" height="30" viewBox="0 0 30 30" fill="none" xmlns="http://www.w3.org/2000/svg">
<path d="M15 1.875C7.75195 1.875 1.875 7.75195 1.875 15C1.875 22.248 7.75195 28.125 15 28.125C22.248 28.125 28.125 22.248 28.125 15C28.125 7.75195 22.248 1.875 15 1.875ZM15 25.8984C8.98242 25.8984 4.10156 21.0176 4.10156 15C4.10156 8.98242 8.98242 4.10156 15 4.10156C21.0176 4.10156 25.8984 8.98242 25.8984 15C25.8984 21.0176 21.0176 25.8984 15 25.8984Z" fill="#222222"/>
<path d="M15 4.10156C8.98242 4.10156 4.10156 8.98242 4.10156 15C4.10156 21.0176 8.98242 25.8984 15 25.8984C21.0176 25.8984 25.8984 21.0176 25.8984 15C25.8984 8.98242 21.0176 4.10156 15 4.10156ZM20.666 10.7139L14.4961 19.2686C14.4099 19.3889 14.2962 19.487 14.1645 19.5546C14.0328 19.6223 13.8868 19.6576 13.7388 19.6576C13.5907 19.6576 13.4448 19.6223 13.3131 19.5546C13.1814 19.487 13.0677 19.3889 12.9814 19.2686L9.33105 14.2061C9.21973 14.0508 9.33105 13.834 9.52148 13.834H10.8955C11.1973 13.834 11.4785 13.9805 11.6543 14.2236L13.7402 17.1182L18.3457 10.7314C18.5215 10.4854 18.8057 10.3418 19.1045 10.3418H20.4785C20.6689 10.3418 20.7803 10.5586 20.666 10.7139V10.7139Z" fill="#1B9527"/>
<path d="M20.4785 10.3418H19.1045C18.8057 10.3418 18.5215 10.4854 18.3457 10.7314L13.7402 17.1182L11.6543 14.2236C11.4785 13.9805 11.1973 13.834 10.8955 13.834H9.52149C9.33106 13.834 9.21973 14.0508 9.33106 14.2061L12.9815 19.2686C13.0677 19.3889 13.1814 19.487 13.3131 19.5546C13.4448 19.6223 13.5907 19.6576 13.7388 19.6576C13.8868 19.6576 14.0328 19.6223 14.1645 19.5546C14.2962 19.487 14.4099 19.3889 14.4961 19.2686L20.666 10.7139C20.7803 10.5586 20.669 10.3418 20.4785 10.3418V10.3418Z" fill="#222222"/>
</svg>