<svg width="15" height="15" viewBox="0 0 15 15" fill="none" xmlns="http://www.w3.org/2000/svg">
<path fill-rule="evenodd" clip-rule="evenodd" d="M7.5 0.625C3.70313 0.625 0.625 3.70313 0.625 7.5C0.625 11.2969 3.70313 14.375 7.5 14.375C11.2969 14.375 14.375 11.2969 14.375 7.5C14.375 3.70313 11.2969 0.625 7.5 0.625ZM7.1875 3.75C7.02174 3.75 6.86277 3.81585 6.74556 3.93306C6.62835 4.05027 6.5625 4.20924 6.5625 4.375C6.5625 4.54076 6.62835 4.69973 6.74556 4.81694C6.86277 4.93415 7.02174 5 7.1875 5H7.5C7.66576 5 7.82473 4.93415 7.94194 4.81694C8.05915 4.69973 8.125 4.54076 8.125 4.375C8.125 4.20924 8.05915 4.05027 7.94194 3.93306C7.82473 3.81585 7.66576 3.75 7.5 3.75H7.1875ZM6.25 6.25C6.08424 6.25 5.92527 6.31585 5.80806 6.43306C5.69085 6.55027 5.625 6.70924 5.625 6.875C5.625 7.04076 5.69085 7.19973 5.80806 7.31694C5.92527 7.43415 6.08424 7.5 6.25 7.5H6.875V9.375H6.25C6.08424 9.375 5.92527 9.44085 5.80806 9.55806C5.69085 9.67527 5.625 9.83424 5.625 10C5.625 10.1658 5.69085 10.3247 5.80806 10.4419C5.92527 10.5592 6.08424 10.625 6.25 10.625H8.75C8.91576 10.625 9.07473 10.5592 9.19194 10.4419C9.30915 10.3247 9.375 10.1658 9.375 10C9.375 9.83424 9.30915 9.67527 9.19194 9.55806C9.07473 9.44085 8.91576 9.375 8.75 9.375H8.125V6.875C8.125 6.70924 8.05915 6.55027 7.94194 6.43306C7.82473 6.31585 7.66576 6.25 7.5 6.25H6.25Z" fill="#222222"/>
</svg>