<svg width="16" height="15" viewBox="0 0 16 15" fill="none" xmlns="http://www.w3.org/2000/svg">
<path d="M9.42857 7.85714C9.42857 8.64286 8.78571 9.28571 8 9.28571C7.21429 9.28571 6.57143 8.64286 6.57143 7.85714C6.57143 7.07143 7.21429 6.42857 8 6.42857C8.78571 6.42857 9.42857 7.07143 9.42857 7.85714ZM4.42857 6.42857C3.64286 6.42857 3 7.07143 3 7.85714C3 8.64286 3.64286 9.28571 4.42857 9.28571C5.21429 9.28571 5.85714 8.64286 5.85714 7.85714C5.85714 7.07143 5.21429 6.42857 4.42857 6.42857ZM11.5714 6.42857C10.7857 6.42857 10.1429 7.07143 10.1429 7.85714C10.1429 8.64286 10.7857 9.28571 11.5714 9.28571C12.3571 9.28571 13 8.64286 13 7.85714C13 7.07143 12.3571 6.42857 11.5714 6.42857ZM9.78571 3.57143C9 3.57143 8.35714 4.21429 8.35714 5C8.35714 5.78571 9 6.42857 9.78571 6.42857C10.5714 6.42857 11.2143 5.78571 11.2143 5C11.2143 4.21429 10.5714 3.57143 9.78571 3.57143ZM6.21429 3.57143C5.42857 3.57143 4.78571 4.21429 4.78571 5C4.78571 5.78571 5.42857 6.42857 6.21429 6.42857C7 6.42857 7.64286 5.78571 7.64286 5C7.64286 4.21429 7 3.57143 6.21429 3.57143ZM9.78571 9.28571C9 9.28571 8.35714 9.92857 8.35714 10.7143C8.35714 11.5 9 12.1429 9.78571 12.1429C10.5714 12.1429 11.2143 11.5 11.2143 10.7143C11.2143 9.92857 10.5714 9.28571 9.78571 9.28571ZM6.21429 9.28571C5.42857 9.28571 4.78571 9.92857 4.78571 10.7143C4.78571 11.5 5.42857 12.1429 6.21429 12.1429C7 12.1429 7.64286 11.5 7.64286 10.7143C7.64286 9.92857 7 9.28571 6.21429 9.28571ZM8 12.1429C7.21429 12.1429 6.57143 12.7857 6.57143 13.5714C6.57143 14.3571 7.21429 15 8 15C8.78571 15 9.42857 14.3571 9.42857 13.5714C9.42857 12.7857 8.78571 12.1429 8 12.1429ZM9.71429 0.857143L9.14286 0C7.57143 0.714286 7.42857 3.28571 7.42857 3.57143H8.5C8.57143 3 8.78571 1.21429 9.71429 0.857143Z" fill="#222222"/>
</svg>
