<svg width="15" height="16" viewBox="0 0 15 16" fill="none" xmlns="http://www.w3.org/2000/svg">
<g clip-path="url(#clip0_6_483)">
<path d="M7.5 0.635422C4.42969 0.635422 1.82812 2.60417 0.867188 5.32292H14.1328C13.1719 2.60417 10.5703 0.635422 7.5 0.635422ZM7.5 14.6979C10.5703 14.6979 13.1719 12.7526 14.1328 10.0104H0.867188C1.82812 12.7526 4.42969 14.6979 7.5 14.6979Z" fill="#ED4C5C"/>
<path d="M0.867188 5.32292C0.609375 6.04948 0.46875 6.84636 0.46875 7.66667C0.46875 8.48698 0.609375 9.28386 0.867188 10.0104H14.1328C14.3906 9.28386 14.5312 8.48698 14.5312 7.66667C14.5312 6.84636 14.3906 6.04948 14.1328 5.32292H0.867188Z" fill="white"/>
</g>
<defs>
<clipPath id="clip0_6_483">
<rect width="15" height="15" fill="white" transform="translate(0 0.166672)"/>
</clipPath>
</defs>
</svg>
