<svg width="11" height="15" viewBox="0 0 11 15" fill="none" xmlns="http://www.w3.org/2000/svg">
<g clip-path="url(#clip0_21_394)">
<path d="M10.7306 2.1501C10.3725 1.78389 9.79244 1.78389 9.43437 2.1501L0.2677 11.5251C-0.0903728 11.8913 -0.0903728 12.4846 0.2677 12.8508C0.447596 13.0342 0.681919 13.125 0.916529 13.125C1.15114 13.125 1.38575 13.0334 1.5645 12.8503L10.7312 3.47534C11.0887 3.1084 11.0887 2.51631 10.7306 2.1501ZM1.8332 5.625C2.84439 5.625 3.66653 4.78359 3.66653 3.75C3.66653 2.71641 2.84439 1.87529 1.8332 1.87529C0.821997 1.87529 -0.000138357 2.7167 -0.000138357 3.75C-0.000138357 4.7833 0.821997 5.625 1.8332 5.625ZM9.16653 9.375C8.15533 9.375 7.3332 10.2164 7.3332 11.25C7.3332 12.2836 8.15533 13.125 9.16653 13.125C10.1777 13.125 10.9999 12.2836 10.9999 11.25C10.9999 10.2164 10.1777 9.375 9.16653 9.375Z" fill="#222222"/>
</g>
<defs>
<clipPath id="clip0_21_394">
<rect width="11" height="15" fill="white"/>
</clipPath>
</defs>
</svg>