<svg width="15" height="16" viewBox="0 0 15 16" fill="none" xmlns="http://www.w3.org/2000/svg">
<path d="M14.8626 2.45938L12.8739 0.470668C12.6908 0.287559 12.394 0.287559 12.2109 0.470668L11.5479 1.13367C11.3648 1.31678 11.3648 1.61356 11.5479 1.79667L9.3017 4.04291C7.93703 3.46575 6.30165 3.72854 5.18922 4.84068L0.549106 9.48081C-0.183035 10.2129 -0.183035 11.4004 0.549106 12.1325L3.20081 14.7842C3.93295 15.5164 5.12038 15.5164 5.85252 14.7842L10.4929 10.1438C11.6051 9.03167 11.8679 7.396 11.2907 6.03132L13.5369 3.78509C13.72 3.9682 14.0168 3.9682 14.1999 3.78509L14.8629 3.12209C15.0457 2.93927 15.0457 2.64249 14.8626 2.45938ZM5.25046 12.7346L2.59875 10.0829L6.1742 6.50741L8.82591 9.15912L5.25046 12.7346Z" fill="#222222"/>
</svg>