<svg width="15" height="15" viewBox="0 0 15 15" fill="none" xmlns="http://www.w3.org/2000/svg">
<path d="M14.0625 5.15625H11.7188V9.84375H12.6562V8.4375H14.0625C14.311 8.43713 14.5493 8.33824 14.725 8.1625C14.9007 7.98677 14.9996 7.74853 15 7.5V6.09375C14.9998 5.84519 14.9009 5.60687 14.7251 5.43111C14.5494 5.25535 14.3111 5.1565 14.0625 5.15625V5.15625ZM12.6562 7.5V6.09375H14.0625L14.063 7.5H12.6562ZM4.6875 6.09375H5.625V9.84375H6.5625V6.09375H7.5V5.15625H4.6875V6.09375ZM10.7812 5.15625H7.96875V6.09375H8.90625V9.84375H9.84375V6.09375H10.7812V5.15625ZM2.8125 5.15625V7.03125H1.40625V5.15625H0.46875V9.84375H1.40625V7.96875H2.8125V9.84375H3.75V5.15625H2.8125Z" fill="#222222"/>
</svg>