<svg width="15" height="15" viewBox="0 0 15 15" fill="none" xmlns="http://www.w3.org/2000/svg">
<path d="M6.25 13.75C6.08424 13.75 5.92527 13.6842 5.80806 13.5669C5.69085 13.4497 5.625 13.2908 5.625 13.125V6.875C5.625 5.625 6.25 4.53125 6.875 4.375V1.5625C6.875 1.47962 6.90792 1.40013 6.96653 1.34153C7.02513 1.28292 7.10462 1.25 7.1875 1.25H7.8125C7.89538 1.25 7.97487 1.28292 8.03347 1.34153C8.09208 1.40013 8.125 1.47962 8.125 1.5625V4.375C8.75 4.53125 9.375 5.625 9.375 6.875V13.125C9.375 13.2908 9.30915 13.4497 9.19194 13.5669C9.07473 13.6842 8.91576 13.75 8.75 13.75H6.25Z" fill="#222222"/>
<path d="M2.5 13.75C2.33424 13.75 2.17527 13.6842 2.05806 13.5669C1.94085 13.4497 1.875 13.2908 1.875 13.125V6.875C1.875 5.625 2.5 4.53125 3.125 4.375V1.5625C3.125 1.47962 3.15792 1.40013 3.21653 1.34153C3.27513 1.28292 3.35462 1.25 3.4375 1.25H4.0625C4.14538 1.25 4.22487 1.28292 4.28347 1.34153C4.34208 1.40013 4.375 1.47962 4.375 1.5625V4.375C5 4.53125 5.625 5.625 5.625 6.875V13.125C5.625 13.2908 5.55915 13.4497 5.44194 13.5669C5.32473 13.6842 5.16576 13.75 5 13.75H2.5Z" fill="#222222"/>
<path d="M11.875 13.75C11.7092 13.75 11.5503 13.6842 11.4331 13.5669C11.3158 13.4497 11.25 13.2908 11.25 13.125V6.875C11.25 5.625 11.875 4.53125 12.5 4.375V1.5625C12.5 1.47962 12.5329 1.40013 12.5915 1.34153C12.6501 1.28292 12.7296 1.25 12.8125 1.25H13.4375C13.5204 1.25 13.5999 1.28292 13.6585 1.34153C13.7171 1.40013 13.75 1.47962 13.75 1.5625V4.375C14.375 4.53125 15 5.625 15 6.875V13.125C15 13.2908 14.9342 13.4497 14.8169 13.5669C14.6997 13.6842 14.5408 13.75 14.375 13.75H11.875Z" fill="#222222"/>
</svg>
