<svg width="15" height="15" viewBox="0 0 15 15" fill="none" xmlns="http://www.w3.org/2000/svg">
<path d="M9.84375 1.875C9.00328 1.875 8.24156 2.0325 7.64625 2.32922C7.05141 2.62594 6.5625 3.10922 6.5625 3.75V5.625C6.5625 5.68547 6.58266 5.74406 6.59203 5.80078C6.12283 5.68155 5.64036 5.62248 5.15625 5.625C4.31578 5.625 3.55406 5.7825 2.95875 6.07922C2.36391 6.37594 1.875 6.85922 1.875 7.5V11.25C1.875 11.8908 2.36391 12.3741 2.95922 12.6708C3.55406 12.9675 4.31578 13.125 5.15625 13.125C5.99672 13.125 6.75844 12.9675 7.35375 12.6708C7.94812 12.3741 8.4375 11.8908 8.4375 11.25V11.0597C8.89605 11.1837 9.36874 11.2476 9.84375 11.25C10.6842 11.25 11.4459 11.0925 12.0413 10.7958C12.6356 10.4991 13.125 10.0158 13.125 9.375V3.75C13.125 3.10922 12.6361 2.62594 12.0408 2.32922C11.4464 2.0325 10.6847 1.875 9.84375 1.875ZM9.84375 2.8125C10.5577 2.8125 11.1933 2.96625 11.6161 3.17859C12.0394 3.39094 12.1875 3.61453 12.1875 3.75C12.1875 3.88594 12.0394 4.10906 11.6161 4.32141C11.1938 4.53375 10.5577 4.6875 9.84375 4.6875C9.12984 4.6875 8.49422 4.53375 8.07141 4.32141C7.64813 4.10906 7.5 3.88547 7.5 3.75C7.5 3.61406 7.64813 3.39094 8.07141 3.17859C8.49375 2.96625 9.12984 2.8125 9.84375 2.8125ZM7.5 5.08312C7.54922 5.11031 7.59516 5.14547 7.64672 5.17078C8.24156 5.4675 9.00328 5.625 9.84375 5.625C10.6842 5.625 11.4459 5.4675 12.0413 5.17078C12.0923 5.14547 12.1383 5.11031 12.1875 5.08312V5.625C12.1875 5.76094 12.0394 5.98406 11.6161 6.19641C11.1933 6.40875 10.5577 6.5625 9.84375 6.5625C9.12984 6.5625 8.49422 6.40875 8.07141 6.19641C7.64813 5.98406 7.5 5.76047 7.5 5.625V5.08312ZM5.15625 6.5625C5.87016 6.5625 6.50578 6.71625 6.92859 6.92859C7.35187 7.14094 7.5 7.36453 7.5 7.5C7.5 7.63594 7.35187 7.85906 6.92859 8.07141C6.50578 8.28375 5.87016 8.4375 5.15625 8.4375C4.44234 8.4375 3.80672 8.28375 3.38391 8.07141C2.96062 7.85906 2.8125 7.63547 2.8125 7.5C2.8125 7.36406 2.96062 7.14094 3.38391 6.92859C3.80625 6.71625 4.44234 6.5625 5.15625 6.5625ZM12.1875 6.95813V7.5C12.1875 7.63594 12.0394 7.85906 11.6161 8.07141C11.1933 8.28375 10.5577 8.4375 9.84375 8.4375C9.36624 8.44009 8.89143 8.36586 8.4375 8.21766V7.5C8.4375 7.43953 8.41734 7.38094 8.40797 7.32422C8.84391 7.43766 9.32719 7.5 9.84375 7.5C10.6842 7.5 11.4459 7.3425 12.0413 7.04578C12.0923 7.02047 12.1383 6.98531 12.1875 6.95813ZM2.8125 8.83313C2.86172 8.86031 2.90766 8.89547 2.95922 8.92078C3.55406 9.2175 4.31578 9.375 5.15625 9.375C5.99672 9.375 6.75844 9.2175 7.35375 8.92078C7.40484 8.89547 7.45078 8.86031 7.5 8.83313V9.375C7.5 9.51094 7.35187 9.73406 6.92859 9.94641C6.50578 10.1587 5.87016 10.3125 5.15625 10.3125C4.44234 10.3125 3.80672 10.1587 3.38391 9.94641C2.96062 9.73406 2.8125 9.51047 2.8125 9.375V8.83313ZM12.1875 8.83313V9.375C12.1875 9.51094 12.0394 9.73406 11.6161 9.94641C11.1933 10.1587 10.5577 10.3125 9.84375 10.3125C9.31078 10.3125 8.82937 10.2375 8.4375 10.1072V9.19922C8.86781 9.31266 9.33656 9.375 9.84375 9.375C10.6842 9.375 11.4459 9.2175 12.0413 8.92078C12.0923 8.89547 12.1383 8.86031 12.1875 8.83313ZM2.8125 10.7081C2.86172 10.7353 2.90766 10.7705 2.95922 10.7958C3.55406 11.0925 4.31578 11.25 5.15625 11.25C5.99672 11.25 6.75844 11.0925 7.35375 10.7958C7.40484 10.7705 7.45078 10.7353 7.5 10.7081V11.25C7.5 11.3859 7.35187 11.6091 6.92859 11.8214C6.50578 12.0337 5.87016 12.1875 5.15625 12.1875C4.44234 12.1875 3.80672 12.0337 3.38391 11.8214C2.96062 11.6091 2.8125 11.3855 2.8125 11.25V10.7081Z" fill="#222222"/>
</svg>