<svg width="15" height="15" viewBox="0 0 15 15" fill="none" xmlns="http://www.w3.org/2000/svg">
<path d="M0.46875 7.5C0.46875 8.88281 0.867187 10.1719 1.54687 11.25H13.4297C14.1094 10.1719 14.5078 8.88281 14.5078 7.5C14.5078 6.11719 14.1094 4.82812 13.4297 3.75H1.54687C0.867187 4.82812 0.46875 6.11719 0.46875 7.5Z" fill="#FFCE31"/>
<path d="M13.4531 3.75C12.2109 1.78125 10.0078 0.46875 7.5 0.46875C4.99219 0.46875 2.78906 1.78125 1.54688 3.75H13.4531ZM1.54688 11.25C2.78906 13.2187 4.99219 14.5312 7.5 14.5312C10.0078 14.5312 12.2109 13.2187 13.4531 11.25H1.54688Z" fill="#ED4C5C"/>
<path d="M2.15625 6.72656H2.90625V7.14844H2.15625V6.72656ZM2.15625 9.82031H2.92969V10.2187H2.15625V9.82031Z" fill="#C8B100"/>
<path d="M2.08594 9.16406C2.01562 9.21094 1.96875 9.25781 1.96875 9.28125C1.96875 9.30469 1.99219 9.32813 2.03906 9.35156C2.08594 9.375 2.13281 9.42188 2.10938 9.46875C2.15625 9.42188 2.17969 9.375 2.17969 9.32813C2.17969 9.25781 2.13281 9.1875 2.08594 9.16406" fill="#ED4C5C"/>
<path d="M2.27344 7.14844H2.8125V9.82031H2.27344V7.14844Z" fill="white"/>
<path d="M3.3749 8.13281C3.25771 8.08594 3.04678 8.03906 2.8124 8.03906C2.74209 8.03906 2.64834 8.03906 2.55459 8.0625C2.22646 8.10938 1.96865 8.25 1.99209 8.34375L1.8749 8.08594C1.85146 7.96875 2.13271 7.82812 2.48428 7.75781C2.60146 7.73437 2.71865 7.73438 2.8124 7.73438C3.04678 7.73438 3.25771 7.75781 3.3749 7.80469V8.13281" fill="#ED4C5C"/>
<path d="M2.27344 8.48438C2.13281 8.48438 2.01562 8.4375 2.01562 8.36719C2.01562 8.32031 2.0625 8.25 2.15625 8.20312H2.29687L2.27344 8.48438ZM2.8125 8.27344C2.90625 8.29687 2.97656 8.32031 3.02344 8.34375C3.04687 8.36719 2.95312 8.46094 2.8125 8.53125V8.27344" fill="#ED4C5C"/>
<path d="M1.92167 9C1.89823 8.95313 2.06229 8.85938 2.27323 8.78906C2.36698 8.76563 2.43729 8.71875 2.55448 8.67188C2.83573 8.55469 3.0701 8.39063 3.02323 8.34375L3.0701 8.625C3.09354 8.67188 2.90604 8.8125 2.62479 8.95313C2.53104 9 2.36698 9.07031 2.27323 9.09375C2.10917 9.14063 1.96854 9.23438 1.96854 9.25781L1.92167 9" fill="#ED4C5C"/>
<path d="M7.19531 6.72656H7.94531V7.14844H7.19531V6.72656ZM7.17188 9.82031H7.94531V10.2187H7.17188V9.82031Z" fill="#C8B100"/>
<path d="M8.01563 9.16406C8.08594 9.21094 8.13281 9.25781 8.13281 9.28125C8.13281 9.30469 8.10938 9.32813 8.0625 9.35156C8.01563 9.39844 7.96875 9.46875 7.99219 9.49219C7.94531 9.44531 7.92188 9.39844 7.92188 9.35156C7.92188 9.25781 7.96875 9.1875 8.01563 9.16406" fill="#ED4C5C"/>
<path d="M7.28906 7.14844H7.82813V9.82031H7.28906V7.14844Z" fill="white"/>
<path d="M6.72656 8.13281C6.84375 8.08594 7.05469 8.03906 7.28906 8.03906C7.35937 8.03906 7.45312 8.03906 7.54688 8.0625C7.875 8.10938 8.13281 8.25 8.10937 8.34375L8.22656 8.0625C8.25 7.94531 7.96875 7.80469 7.61719 7.73438H7.28906C7.05469 7.73438 6.84375 7.75781 6.72656 7.80469V8.13281" fill="#ED4C5C"/>
<path d="M7.82805 8.48438C7.96868 8.48438 8.08586 8.4375 8.08586 8.36719C8.08586 8.32031 8.03899 8.25 7.94524 8.20312H7.80461L7.82805 8.48438ZM7.28899 8.27344C7.19524 8.29687 7.12493 8.32031 7.07805 8.34375C7.05461 8.36719 7.14836 8.46094 7.28899 8.53125V8.27344" fill="#ED4C5C"/>
<path d="M8.17969 9C8.20313 8.95313 8.03906 8.85938 7.82813 8.78906C7.73438 8.76563 7.66406 8.71875 7.54688 8.67188C7.26563 8.55469 7.03125 8.39063 7.07813 8.34375L7.03125 8.625C7.00781 8.67188 7.19531 8.8125 7.47656 8.95313C7.57031 9 7.73438 9.07031 7.82813 9.09375C7.99219 9.14063 8.13281 9.25781 8.10937 9.28125L8.17969 9V9ZM5.03906 5.22656C5.48437 5.22656 6.39844 5.32031 6.72656 5.64844C6.375 6.49219 5.8125 6.14063 5.03906 6.14063C4.28906 6.14063 3.70312 6.49219 3.35156 5.64844C3.67969 5.32031 4.57031 5.22656 5.03906 5.22656Z" fill="#ED4C5C"/>
<path d="M6.1875 6.16406C5.90625 6 5.48438 5.97656 5.03906 5.97656C4.59375 5.97656 4.17188 6.02344 3.89063 6.16406L3.98438 6.5625C4.24219 6.63281 4.61719 6.67969 5.03906 6.67969C5.46094 6.67969 5.8125 6.63281 6.09375 6.5625L6.1875 6.16406ZM6.58594 5.15625C6.49219 5.08594 6.30469 5.01562 6.14063 5.01562C6.07031 5.01562 6 5.01562 5.92969 5.03906C5.92969 5.03906 5.78906 4.85156 5.46094 4.85156C5.34375 4.85156 5.25 4.875 5.15625 4.92188V4.89844C5.13281 4.85156 5.08594 4.80469 5.03906 4.80469C4.99219 4.80469 4.92188 4.875 4.92188 4.92188V4.94531C4.82813 4.89844 4.73438 4.875 4.61719 4.875C4.28906 4.875 4.14844 5.08594 4.14844 5.0625C4.07813 5.03906 4.00781 5.03906 3.9375 5.03906C2.85937 5.03906 3.39844 5.76563 3.39844 5.76563L3.51563 5.625C3.25781 5.29688 3.49219 5.10937 3.96094 5.10937C4.03125 5.10937 4.07813 5.10937 4.125 5.13281C3.96094 5.36719 4.26563 5.57812 4.26563 5.57812L4.33594 5.46094C4.17188 5.34375 4.14844 4.94531 4.61719 4.94531C4.73438 4.94531 4.82813 4.96875 4.92188 5.03906C4.92188 5.0625 4.89844 5.39063 4.875 5.4375L5.0625 5.60156L5.25 5.4375C5.22656 5.36719 5.20313 5.0625 5.20313 5.03906C5.27344 4.99219 5.39063 4.94531 5.50781 4.94531C6 4.94531 6 5.34375 5.78906 5.46094L5.85938 5.57812C5.85938 5.57812 6.11719 5.36719 6 5.13281C6.04688 5.13281 6.11719 5.10937 6.16406 5.10937C6.72656 5.10937 6.75 5.53125 6.60938 5.625L6.70313 5.76563C6.65625 5.76563 6.91406 5.4375 6.58594 5.15625" fill="#C8B100"/>
<path d="M4.89844 4.71094C4.89844 4.64063 4.96875 4.57031 5.03906 4.57031C5.13281 4.57031 5.17969 4.64063 5.17969 4.71094C5.17969 4.78125 5.10938 4.85156 5.03906 4.85156C4.96875 4.85156 4.89844 4.78125 4.89844 4.71094Z" fill="#005BBF"/>
<path d="M4.99219 4.3125V4.38281H4.92188V4.45313H4.99219V4.6875H4.89844V4.75781H5.17969L5.20313 4.71094L5.17969 4.6875H5.08594V4.45313H5.15625V4.38281H5.08594V4.3125H4.99219Z" fill="#C8B100"/>
<path d="M5.03906 6.63281C4.66406 6.63281 4.33594 6.58594 4.07812 6.51562C4.33594 6.44531 4.66406 6.39844 5.03906 6.39844C5.41406 6.39844 5.74219 6.44531 6 6.51562C5.76563 6.58594 5.41406 6.63281 5.03906 6.63281Z" fill="#ED4C5C"/>
<path d="M5.0625 10.6875C4.61719 10.6875 4.19531 10.5703 3.82031 10.4063C3.53906 10.2656 3.375 10.0078 3.375 9.70313V8.57812H6.75V9.70313C6.75 10.0078 6.5625 10.2891 6.30469 10.4063C5.92969 10.5938 5.50781 10.6875 5.0625 10.6875ZM5.03906 6.70312H6.72656V8.57812H5.03906V6.70312Z" fill="white"/>
<path d="M5.0625 9.70313C5.0625 10.1484 4.6875 10.5 4.21875 10.5C3.75 10.5 3.375 10.1484 3.375 9.70313V8.57812H5.0625V9.70313Z" fill="#ED4C5C"/>
<path d="M3.72656 10.3594C3.77344 10.3828 3.84375 10.4297 3.9375 10.4531V8.53125H3.75L3.72656 10.3594ZM3.35156 9.67969C3.35156 9.91406 3.44531 10.1016 3.53906 10.1953V8.53125H3.35156V9.67969Z" fill="#C8B100"/>
<path d="M4.10156 10.5H4.28906V8.53125H4.10156V10.5Z" fill="#C7B500"/>
<path d="M4.47656 10.4531C4.54688 10.4297 4.64062 10.3828 4.6875 10.3594V8.53125H4.5L4.47656 10.4531" fill="#C8B100"/>
<path d="M3.35156 6.70312H5.03906V8.57812H3.35156V6.70312Z" fill="#ED4C5C"/>
<path d="M4.875 10.1953C4.96875 10.125 5.03906 9.96094 5.0625 9.77344V8.55469H4.875V10.1953Z" fill="#C8B100"/>
<path d="M6.75 8.57815V9.70315C6.75 10.1485 6.375 10.5 5.90625 10.5C5.4375 10.5 5.0625 10.1485 5.0625 9.70315V8.57815H6.75V8.57815ZM6.14063 7.03127C6.21094 7.1719 6.21094 7.52346 6 7.45315C6.04688 7.47658 6.07031 7.64065 6.14063 7.7344C6.25781 7.87502 6.39844 7.75783 6.375 7.59377C6.32813 7.33596 6.35156 7.1719 6.39844 6.91408C6.39844 6.93752 6.51563 6.93752 6.5625 6.89065C6.53906 6.96096 6.51563 7.05471 6.5625 7.05471C6.51563 7.12502 6.39844 7.24221 6.375 7.31252C6.35156 7.47658 6.60938 7.78127 6.32813 7.85158C6.14063 7.89846 6.25781 8.03908 6.32813 8.1094C6.32813 8.1094 6.23437 8.41408 6.28125 8.39065C6.09375 8.46096 6.14063 8.2969 6.14063 8.2969C6.23438 8.01565 5.97656 7.99221 6 7.94533C5.76563 7.9219 6.02344 8.15627 5.8125 8.15627C5.76562 8.15627 5.67188 8.20315 5.67188 8.20315C5.41406 8.17971 5.55469 7.94533 5.64844 7.96877C5.71875 7.99221 5.78906 8.1094 5.78906 7.94533C5.78906 7.94533 5.67188 7.75783 5.97656 7.75783C5.85938 7.75783 5.78906 7.66408 5.74219 7.5469C5.69531 7.57033 5.625 7.68752 5.36719 7.71096C5.36719 7.71096 5.29687 7.45315 5.36719 7.50002C5.46094 7.5469 5.50781 7.5469 5.60156 7.45315C5.55469 7.38283 5.27344 7.28908 5.32031 7.12502C5.32031 7.07815 5.46094 7.00783 5.46094 7.00783C5.4375 7.12502 5.50781 7.24221 5.64844 7.24221C5.83594 7.26565 5.76563 7.19533 5.78906 7.14846C5.8125 7.10158 5.95313 7.1719 5.90625 7.05471C5.90625 7.03127 5.74219 7.00783 5.78906 6.93752C5.88281 6.82033 6.02344 6.91408 6.14063 7.03127V7.03127ZM5.0625 10.4531L5.01562 10.336L5.0625 10.1953L5.10937 10.336L5.0625 10.4531Z" fill="#ED4C5C"/>
<path d="M3.86719 7.10156V7.21875H3.91406V7.3125H3.79688V7.54688H3.86719V8.0625H3.72656V8.32031H4.6875V8.0625H4.57031V7.54688H4.61719V7.3125H4.5V7.21875H4.57031V7.10156H4.33594V7.21875H4.38281V7.3125H4.26563V7.03125H4.33594V6.91406H4.07813V7.03125H4.14844V7.3125H4.03125V7.21875H4.07813V7.10156H3.86719ZM6.51563 9.98437V8.8125H5.29688V9.98437L5.85938 10.2422H5.92969L6.51563 9.98437ZM5.85938 8.90625V9.30469L5.46094 8.90625H5.85938ZM5.36719 8.92969L5.83594 9.39844L5.36719 9.86719V8.92969ZM5.41406 9.96094L5.85938 9.51562V10.1719L5.41406 9.96094ZM5.92969 10.1484V9.49219L6.375 9.9375L5.92969 10.1484ZM6.42188 9.86719L5.95313 9.39844L6.42188 8.92969V9.86719ZM5.92969 8.90625H6.32813L5.92969 9.30469V8.90625Z" fill="#C8B100"/>
<path d="M4.5 8.55469C4.5 8.20312 4.73437 7.94531 5.03906 7.94531C5.34375 7.94531 5.57812 8.22656 5.57812 8.55469C5.57812 8.88281 5.34375 9.16406 5.03906 9.16406C4.73437 9.16406 4.5 8.90625 4.5 8.55469Z" fill="#ED4C5C"/>
<path d="M4.66406 8.55469C4.66406 8.29688 4.82813 8.10938 5.03906 8.10938C5.25 8.10938 5.41406 8.32031 5.41406 8.55469C5.41406 8.8125 5.25 9 5.03906 9C4.85156 9.02344 4.66406 8.8125 4.66406 8.55469Z" fill="#005BBF"/>
<path d="M4.875 8.25L4.78125 8.50781L4.85156 8.53125L4.80469 8.625H4.94531L4.89844 8.53125L4.96875 8.50781L4.875 8.25V8.25ZM5.22656 8.25L5.13281 8.50781L5.20313 8.53125L5.15625 8.625H5.29688L5.27344 8.53125L5.34375 8.50781L5.22656 8.25V8.25ZM5.0625 8.55469L4.94531 8.8125L5.01562 8.83594L4.99219 8.92969H5.10937L5.08594 8.83594L5.15625 8.8125L5.0625 8.55469Z" fill="#C8B100"/>
</svg>