<svg width="15" height="15" viewBox="0 0 15 15" fill="none" xmlns="http://www.w3.org/2000/svg">
<path d="M7.47656 0.46875C4.40625 0.46875 1.80469 2.4375 0.84375 5.15625H14.1094C13.1484 2.4375 10.5469 0.46875 7.47656 0.46875Z" fill="#3E4347"/>
<path d="M7.47656 14.5312C10.5469 14.5312 13.1484 12.5859 14.1094 9.84375H0.84375C1.80469 12.5859 4.40625 14.5312 7.47656 14.5312V14.5312Z" fill="#FFE62E"/>
<path d="M0.84375 5.15625C0.585937 5.88281 0.445312 6.67969 0.445312 7.5C0.445312 8.32031 0.585937 9.11719 0.84375 9.84375H14.1094C14.3672 9.11719 14.5078 8.32031 14.5078 7.5C14.5078 6.67969 14.3672 5.88281 14.1094 5.15625H0.84375Z" fill="#ED4C5C"/>
</svg>
