<svg width="15" height="15" viewBox="0 0 15 15" fill="none" xmlns="http://www.w3.org/2000/svg">
<path d="M14.2734 9.375C14.4375 8.78906 14.5312 8.15625 14.5312 7.5C14.5312 6.84375 14.4375 6.21094 14.2734 5.625H7.42969L3.46875 1.73438C2.53125 2.39062 1.75781 3.28125 1.21875 4.3125L4.45313 7.5L1.24219 10.6875C1.75781 11.7187 2.53125 12.6094 3.49219 13.2656L7.42969 9.375H14.2734Z" fill="#699635"/>
<path d="M0.820312 5.27344C0.585937 5.97656 0.46875 6.72656 0.46875 7.5C0.46875 8.27344 0.585937 9.02344 0.820312 9.72656L3.07031 7.5L0.820312 5.27344Z" fill="#3E4347"/>
<path d="M4.28906 13.7578C5.25 14.25 6.35156 14.5312 7.5 14.5312C10.3828 14.5312 12.8672 12.7969 13.9453 10.2891H7.82813L4.28906 13.7578Z" fill="#428BC1"/>
<path d="M13.9453 4.71094C12.8672 2.20313 10.3828 0.46875 7.5 0.46875C6.35156 0.46875 5.25 0.75 4.28906 1.24219L7.82813 4.71094H13.9453Z" fill="#ED4C5C"/>
<path d="M14.1797 5.32031C14.1094 5.10938 14.0391 4.89844 13.9453 4.71094H7.82813L4.28906 1.24219C4.125 1.3125 3.98437 1.40625 3.82031 1.5C3.70312 1.57031 3.58594 1.66406 3.46875 1.73437L7.42969 5.625H14.2734C14.25 5.53125 14.2266 5.41406 14.1797 5.32031Z" fill="white"/>
<path d="M1.24219 4.3125C1.21875 4.35937 1.19531 4.40625 1.17188 4.47656C1.05469 4.73438 0.9375 4.99219 0.84375 5.27344L3.09375 7.5L0.84375 9.72656C0.9375 10.0078 1.03125 10.2656 1.17188 10.5234C1.19531 10.5703 1.21875 10.6172 1.24219 10.6875L4.45312 7.5L1.24219 4.3125Z" fill="#FFCE31"/>
<path d="M7.42969 9.375L3.46875 13.2656C3.53906 13.3125 3.63281 13.3828 3.70313 13.4297C3.89063 13.5469 4.07812 13.6641 4.28906 13.7578L7.82813 10.2891H13.9453C14.0391 10.0547 14.1328 9.82031 14.2266 9.5625C14.25 9.49219 14.25 9.44531 14.2734 9.375H7.42969" fill="white"/>
</svg>
