<svg width="15" height="15" viewBox="0 0 15 15" fill="none" xmlns="http://www.w3.org/2000/svg">
<path d="M0.445312 7.5C0.445312 10.5703 2.41406 13.1719 5.13281 14.1328V0.867188C2.41406 1.82812 0.445312 4.42969 0.445312 7.5Z" fill="#428BC1"/>
<path d="M14.5078 7.5C14.5078 4.42969 12.5625 1.82812 9.82031 0.867188V14.1328C12.5625 13.1719 14.5078 10.5703 14.5078 7.5" fill="#ED4C5C"/>
<path d="M5.13281 14.1328C5.85937 14.3906 6.65625 14.5312 7.47656 14.5312C8.29688 14.5312 9.09375 14.3906 9.82031 14.1328V0.867188C9.09375 0.609375 8.32031 0.46875 7.47656 0.46875C6.63281 0.46875 5.85937 0.609375 5.13281 0.867188V14.1328" fill="white"/>
</svg>
