<svg width="15" height="15" viewBox="0 0 15 15" fill="none" xmlns="http://www.w3.org/2000/svg">
<path d="M0.398438 7.5C0.398438 10.5703 2.36719 13.1719 5.08594 14.1328V0.867188C2.36719 1.82812 0.398438 4.42969 0.398438 7.5Z" fill="#75A843"/>
<path d="M14.4609 7.5C14.4609 4.42969 12.4922 1.82812 9.77344 0.867188V14.1328C12.5156 13.1719 14.4609 10.5703 14.4609 7.5" fill="#ED4C5C"/>
<path d="M5.08594 14.1328C5.8125 14.3906 6.60938 14.5312 7.42969 14.5312C8.25 14.5312 9.04688 14.3906 9.77344 14.1328V0.867188C9.04688 0.609375 8.25 0.46875 7.42969 0.46875C6.60938 0.46875 5.8125 0.609375 5.08594 0.867188V14.1328" fill="white"/>
</svg>