<svg width="15" height="15" viewBox="0 0 15 15" fill="none" xmlns="http://www.w3.org/2000/svg">
<path d="M7.5 0.46875V2.8125H2.8125V7.5H0.46875C0.46875 11.3906 3.60937 14.5312 7.5 14.5312C11.3906 14.5312 14.5312 11.3906 14.5312 7.5C14.5312 3.60937 11.3906 0.46875 7.5 0.46875Z" fill="#2A5F9E"/>
<path d="M3.28125 1.875C1.57031 3.16406 0.46875 5.20312 0.46875 7.5H3.28125V1.875Z" fill="white"/>
<path d="M1.875 3.28125H7.5V0.46875C5.20312 0.46875 3.16406 1.57031 1.875 3.28125Z" fill="white"/>
<path d="M2.29688 2.76563L6.09375 7.5H7.5V5.74219L4.00781 1.38281C3.375 1.75781 2.78906 2.22656 2.29688 2.76563Z" fill="white"/>
<path d="M7.5 1.17188H4.42969C3.02344 1.85156 1.85156 3.02344 1.17188 4.42969V7.5H2.57812V2.57812H7.5V1.17188Z" fill="#ED4C5C"/>
<path d="M7.5 6.35156L4.45312 2.57812H3.04688L7.03125 7.5H7.5V6.35156Z" fill="#ED4C5C"/>
<path d="M8.69531 7.5L8.92969 6.82031L8.29688 6.375H9.09375L9.32812 5.71875L9.5625 6.375H10.3594L9.72656 6.82031L9.96094 7.5L9.32812 7.07813L8.69531 7.5" fill="white"/>
<path d="M9.32812 6.91406L9.70313 7.17188L9.5625 6.75L9.9375 6.49219H9.46875L9.32812 6.09375L9.1875 6.49219H8.71875L9.09375 6.75L8.95313 7.17188L9.32812 6.91406Z" fill="#ED4C5C"/>
<path d="M12.7969 7.5L13.0312 6.82031L12.3984 6.375H13.1953L13.4297 5.71875L13.6641 6.375H14.4609L13.8281 6.82031L14.0625 7.5L13.4297 7.07813L12.7969 7.5" fill="white"/>
<path d="M13.4297 6.91406L13.8047 7.17188L13.6641 6.75L14.0391 6.49219H13.5703L13.4297 6.09375L13.2891 6.49219H12.8203L13.1953 6.75L13.0547 7.17188L13.4297 6.91406Z" fill="#ED4C5C"/>
<path d="M10.7578 5.08594L10.9922 4.40625L10.3594 3.96094H11.1562L11.3906 3.30469L11.625 3.96094H12.4219L11.7891 4.40625L12.0234 5.08594L11.3906 4.66406L10.7578 5.08594" fill="white"/>
<path d="M11.3672 4.5L11.7422 4.75781L11.6016 4.33594L11.9766 4.07812H11.5313L11.3672 3.67969L11.25 4.07812H10.7812L11.1562 4.33594L11.0156 4.75781L11.3672 4.5Z" fill="#ED4C5C"/>
<path d="M10.5469 11.4141L10.8516 10.5234L10.0078 9.9375H11.0625L11.3672 9.07031L11.6719 9.9375H12.7031L11.8594 10.5234L12.1641 11.4141L11.3438 10.8516L10.5469 11.4141" fill="white"/>
<path d="M11.3672 10.6406L11.8594 10.9688L11.6953 10.4297L12.1641 10.0781H11.5781L11.3672 9.5625L11.2031 10.0781H10.5938L11.0625 10.4297L10.8984 10.9688L11.3672 10.6406Z" fill="#ED4C5C"/>
<path d="M2.95312 2.57812H5.8125V3.28125H2.95312V2.57812Z" fill="white"/>
</svg>
