<svg width="15" height="15" viewBox="0 0 15 15" fill="none" xmlns="http://www.w3.org/2000/svg">
<path d="M0.46875 7.5C0.46875 8.88281 0.867187 10.1719 1.54687 11.25H13.4297C14.1094 10.1719 14.5078 8.88281 14.5078 7.5C14.5078 6.11719 14.1094 4.82812 13.4297 3.75H1.54687C0.867187 4.82812 0.46875 6.11719 0.46875 7.5Z" fill="#F9F9F9"/>
<path d="M13.4531 3.75C12.2109 1.78125 10.0078 0.46875 7.5 0.46875C4.99219 0.46875 2.78906 1.78125 1.54688 3.75H13.4531ZM1.54688 11.25C2.78906 13.2187 4.99219 14.5312 7.5 14.5312C10.0078 14.5312 12.2109 13.2187 13.4531 11.25H1.54688Z" fill="#B4D7EE"/>
<path d="M10.7109 7.45312L8.78906 7.38281V7.35937C9.09375 7.3125 9.32813 7.125 9.65625 7.14844C10.0547 7.19531 10.2891 6.96094 10.4297 6.91406C10.5938 6.86719 10.6875 6.96094 10.6875 6.91406C10.7109 6.86719 10.5938 6.77344 10.3594 6.79688C10.1484 6.82031 10.0781 7.00781 9.58594 6.96094C9.16406 6.9375 9.02344 7.10156 8.71875 7.10156V7.07813L10.4531 6.28125C10.4531 6.28125 10.5 6.25781 10.5 6.21094C10.4766 6.16406 10.4297 6.1875 10.4297 6.1875L8.67188 6.89062V6.86719C8.92969 6.70312 9.07031 6.44531 9.39844 6.35156C9.77344 6.23438 9.91406 5.95312 10.0312 5.83594C10.1484 5.71875 10.2891 5.78906 10.2891 5.74219C10.2891 5.69531 10.1484 5.64844 9.96094 5.76563C9.77344 5.88281 9.77344 6.07031 9.30469 6.21094C8.90625 6.32812 8.83594 6.53906 8.55469 6.67969L8.53125 6.65625L9.84375 5.25C9.84375 5.25 9.89062 5.20313 9.86719 5.17969C9.84375 5.15625 9.79687 5.20313 9.79687 5.20313L8.39062 6.51562L8.36719 6.49219C8.55469 6.23438 8.57813 5.95312 8.83594 5.74219C9.14063 5.48437 9.14062 5.17969 9.21094 5.03906C9.28125 4.89844 9.42187 4.89844 9.39844 4.85156C9.375 4.80469 9.23437 4.82812 9.09375 4.99219C8.95312 5.17969 9.02344 5.34375 8.67188 5.64844C8.36719 5.90625 8.36719 6.14063 8.17969 6.35156C8.17969 6.35156 8.15625 6.35156 8.15625 6.32812L8.8125 4.52344C8.8125 4.52344 8.83594 4.47656 8.78906 4.45312C8.74219 4.42969 8.71875 4.5 8.71875 4.5L7.92187 6.23438H7.89844C7.96875 5.92969 7.89844 5.64844 8.03906 5.36719C8.22656 5.01562 8.10937 4.71094 8.10937 4.57031C8.13281 4.40625 8.25 4.35938 8.22656 4.33594C8.20312 4.28906 8.0625 4.38281 7.99219 4.59375C7.94531 4.80469 8.0625 4.94531 7.85156 5.36719C7.66406 5.74219 7.75781 5.92969 7.66406 6.21094H7.64062L7.57031 4.28906C7.57031 4.28906 7.57031 4.21875 7.52344 4.21875C7.47656 4.21875 7.47656 4.28906 7.47656 4.28906L7.40625 6.21094H7.38281C7.33594 5.90625 7.14844 5.67187 7.17188 5.34375C7.21875 4.94531 6.98438 4.71094 6.9375 4.57031C6.89063 4.42969 6.98438 4.3125 6.9375 4.3125C6.89063 4.28906 6.79688 4.40625 6.82031 4.64062C6.84375 4.85156 7.03125 4.92188 6.98437 5.41406C6.96094 5.83594 7.125 5.97656 7.125 6.28125H7.10156L6.30469 4.54687C6.30469 4.54687 6.28125 4.5 6.23438 4.5C6.1875 4.52344 6.21094 4.57031 6.21094 4.57031L6.86719 6.375H6.84375C6.67969 6.11719 6.42188 5.97656 6.32813 5.64844C6.21094 5.27344 5.92969 5.13281 5.8125 5.01562C5.69531 4.89844 5.76563 4.75781 5.71875 4.75781C5.67187 4.75781 5.625 4.89844 5.74219 5.08594C5.85938 5.27344 6.04687 5.27344 6.1875 5.74219C6.30469 6.14063 6.51562 6.21094 6.65625 6.49219L6.63281 6.51562L5.22656 5.20313C5.22656 5.20313 5.17969 5.15625 5.15625 5.17969C5.13281 5.20313 5.17969 5.25 5.17969 5.25L6.49219 6.65625L6.46875 6.67969C6.21094 6.49219 5.92969 6.46875 5.71875 6.21094C5.46094 5.90625 5.15625 5.90625 5.01562 5.83594C4.875 5.76562 4.875 5.625 4.82813 5.64844C4.78125 5.67188 4.80469 5.8125 4.96875 5.95312C5.15625 6.09375 5.32031 6.02344 5.625 6.375C5.88281 6.67969 6.11719 6.67969 6.32813 6.86719C6.32813 6.86719 6.32813 6.89062 6.30469 6.89062L4.5 6.23438C4.5 6.23438 4.45313 6.21094 4.42969 6.25781C4.40625 6.30469 4.47656 6.32812 4.47656 6.32812L6.21094 7.125V7.14844C5.90625 7.07812 5.625 7.14844 5.34375 7.00781C4.99219 6.82031 4.6875 6.9375 4.54688 6.9375C4.38281 6.91406 4.33594 6.79688 4.3125 6.82031C4.26562 6.84375 4.35938 6.98438 4.57031 7.05469C4.78125 7.10156 4.92187 6.98438 5.34375 7.19531C5.71875 7.38281 5.90625 7.28906 6.1875 7.38281V7.40625L4.26563 7.47656C4.26563 7.47656 4.19531 7.47656 4.19531 7.52344C4.19531 7.57031 4.26563 7.57031 4.26563 7.57031L6.1875 7.64062V7.66406C5.88281 7.71094 5.64844 7.89844 5.32031 7.875C4.92188 7.82812 4.6875 8.0625 4.54688 8.10937C4.38281 8.15625 4.28906 8.0625 4.28906 8.10937C4.26562 8.15625 4.38281 8.25 4.61719 8.22656C4.85156 8.20312 4.89844 8.03906 5.39063 8.0625C5.8125 8.08594 5.95313 7.92187 6.25781 7.92187V7.94531L4.52344 8.74219C4.52344 8.74219 4.47656 8.76562 4.47656 8.8125C4.47656 8.85937 4.54688 8.83594 4.54688 8.83594L6.35156 8.17969V8.20312C6.09375 8.36719 5.95313 8.625 5.625 8.71875C5.25 8.83594 5.10937 9.11719 4.99219 9.23438C4.875 9.35156 4.73438 9.28125 4.73438 9.32812C4.73438 9.375 4.875 9.42188 5.0625 9.30469C5.25 9.1875 5.25 9 5.71875 8.85937C6.11719 8.74219 6.1875 8.53125 6.46875 8.39062L6.49219 8.41406L5.17969 9.82031C5.17969 9.82031 5.13281 9.86719 5.15625 9.89063C5.17969 9.91406 5.22656 9.86719 5.22656 9.86719L6.63281 8.55469L6.65625 8.57812C6.46875 8.83594 6.44531 9.11719 6.1875 9.32812C5.88281 9.58594 5.88281 9.89062 5.8125 10.0312C5.74219 10.1719 5.60156 10.1719 5.625 10.2187C5.64844 10.2656 5.78906 10.2422 5.92969 10.0781C6.07031 9.91406 6 9.72656 6.35156 9.42188C6.65625 9.16406 6.65625 8.92969 6.84375 8.71875C6.84375 8.71875 6.86719 8.71875 6.86719 8.74219L6.21094 10.5469C6.21094 10.5469 6.1875 10.5937 6.23438 10.6172C6.28125 10.6406 6.30469 10.5703 6.30469 10.5703L7.10156 8.83594H7.125C7.05469 9.14063 7.125 9.42188 6.98437 9.70313C6.79687 10.0547 6.91406 10.3594 6.89062 10.5C6.86719 10.6641 6.75 10.7109 6.77344 10.7344C6.79688 10.7812 6.9375 10.6875 7.00781 10.4766C7.05469 10.2656 6.9375 10.1484 7.14844 9.70313C7.33594 9.32813 7.24219 9.14062 7.33594 8.85937H7.35938L7.42969 10.7812C7.42969 10.7812 7.42969 10.8516 7.47656 10.8516C7.52344 10.8516 7.52344 10.7812 7.52344 10.7812L7.59375 8.85937H7.61719C7.66406 9.16406 7.85156 9.39844 7.82813 9.72656C7.78125 10.125 8.01563 10.3594 8.0625 10.5C8.10938 10.6641 8.01563 10.7578 8.0625 10.7578C8.10938 10.7813 8.20313 10.6641 8.17969 10.4297C8.15625 10.2188 7.96875 10.1484 8.01563 9.65625C8.03906 9.23438 7.875 9.09375 7.875 8.78906H7.89844L8.69531 10.5234C8.69531 10.5234 8.71875 10.5703 8.76563 10.5703C8.8125 10.5469 8.78906 10.5 8.78906 10.5L8.10937 8.67188H8.13281C8.29688 8.92969 8.55469 9.07031 8.64844 9.39844C8.76563 9.77344 9.04687 9.91406 9.16406 10.0312C9.28125 10.1484 9.21094 10.2891 9.25781 10.2891C9.30469 10.2891 9.35156 10.1484 9.23438 9.96094C9.11719 9.77344 8.92969 9.77344 8.78906 9.30469C8.67188 8.90625 8.46094 8.83594 8.32031 8.55469L8.34375 8.53125L9.75 9.84375C9.75 9.84375 9.79688 9.89062 9.82031 9.86719C9.84375 9.84375 9.79687 9.79687 9.79687 9.79687L8.48438 8.39062L8.50781 8.36719C8.76562 8.55469 9.04688 8.57813 9.25781 8.83594C9.51563 9.14063 9.82031 9.14062 9.96094 9.21094C10.1016 9.28125 10.1016 9.42187 10.1484 9.39844C10.1953 9.375 10.1719 9.23437 10.0078 9.09375C9.82031 8.95312 9.65625 9.02344 9.35156 8.67188C9.09375 8.36719 8.85938 8.36719 8.64844 8.15625C8.64844 8.15625 8.64844 8.13281 8.67188 8.13281L10.4766 8.78906C10.4766 8.78906 10.5234 8.8125 10.5469 8.76563C10.5703 8.71875 10.5 8.69531 10.5 8.69531L8.76563 7.89844V7.875C9.07031 7.94531 9.35156 7.875 9.63281 8.01563C9.98437 8.20313 10.2891 8.08594 10.4297 8.08594C10.5938 8.10938 10.6406 8.22656 10.6641 8.20312C10.7109 8.17969 10.6172 8.03906 10.4063 7.96875C10.1953 7.92187 10.0547 8.03906 9.63281 7.82813C9.25781 7.64063 9.07031 7.73437 8.78906 7.64062V7.61719L10.7109 7.54688C10.7109 7.54688 10.7813 7.54688 10.7813 7.5C10.7813 7.45312 10.7109 7.45312 10.7109 7.45312" fill="#F6B40E"/>
<path d="M8.20312 7.33594C8.13281 7.26562 8.03906 7.21875 7.94531 7.21875C7.85156 7.21875 7.78125 7.26562 7.71094 7.33594C7.82812 7.42969 8.03906 7.42969 8.20312 7.33594ZM8.13281 7.3125C8.08594 7.35938 8.03906 7.38281 7.99219 7.38281C8.01562 7.35938 8.03906 7.33594 8.03906 7.3125C8.03906 7.28906 8.01562 7.26563 7.99219 7.24219C8.0625 7.26563 8.10937 7.28906 8.13281 7.3125ZM7.875 7.24219C7.85156 7.26563 7.85156 7.28906 7.85156 7.3125C7.85156 7.33594 7.875 7.38281 7.89844 7.38281C7.85156 7.38281 7.80469 7.35938 7.75781 7.3125C7.80469 7.28906 7.82812 7.26563 7.875 7.24219Z" fill="#85340A"/>
<path d="M7.96875 7.14844C7.82812 7.14844 7.80469 7.17187 7.75781 7.21875C7.6875 7.26562 7.66406 7.26562 7.66406 7.26562C7.66406 7.26562 7.66406 7.3125 7.6875 7.28906C7.71094 7.28906 7.75781 7.26562 7.80469 7.21875C7.875 7.17187 7.92187 7.17188 7.99219 7.17188C8.17969 7.17188 8.27344 7.3125 8.29688 7.3125C8.32031 7.3125 8.15625 7.14844 7.96875 7.14844" fill="#85340A"/>
<path d="M7.57034 7.125C7.54691 7.17188 7.54691 7.19532 7.54691 7.24219C7.52347 7.38282 7.54691 7.54688 7.64066 7.71094C7.64066 7.71094 7.66409 7.6875 7.68753 7.6875C7.59378 7.57032 7.57034 7.42969 7.57034 7.3125C7.57034 7.24219 7.61722 7.19532 7.64066 7.14844C7.80472 7.00782 8.08597 7.03125 8.32034 7.21875C8.10941 6.91407 7.80472 6.9375 7.57034 7.125" fill="#85340A"/>
<path d="M7.80469 7.42969C7.73437 7.38281 7.71094 7.35938 7.6875 7.35938C7.66406 7.35938 7.66406 7.38281 7.75781 7.42969C7.85156 7.47656 8.03906 7.5 8.20312 7.35938C8.01562 7.45313 7.875 7.45313 7.80469 7.42969V7.42969ZM7.6875 7.80469C7.66406 7.80469 7.64062 7.78125 7.61719 7.75781C7.61719 7.78125 7.57031 7.82813 7.5 7.82813C7.42969 7.82813 7.38281 7.75781 7.38281 7.75781C7.38281 7.78125 7.35938 7.80469 7.3125 7.80469C7.28906 7.80469 7.24219 7.78125 7.24219 7.73438C7.24219 7.71094 7.26562 7.6875 7.28906 7.6875C7.24219 7.6875 7.21875 7.73438 7.21875 7.78125C7.21875 7.82813 7.26563 7.875 7.3125 7.875C7.33594 7.875 7.35937 7.85156 7.38281 7.82813C7.40625 7.85156 7.47656 7.85156 7.5 7.85156H7.52344C7.54687 7.85156 7.59375 7.85156 7.64062 7.82813C7.66406 7.85156 7.6875 7.875 7.71094 7.875C7.75781 7.875 7.80469 7.82813 7.80469 7.78125C7.80469 7.73438 7.78125 7.71094 7.73437 7.6875C7.75781 7.6875 7.78125 7.71094 7.78125 7.73438C7.75781 7.78125 7.73437 7.80469 7.6875 7.80469ZM7.5 8.01563C7.54687 8.01563 7.59375 7.96875 7.66406 8.01563C7.73438 8.0625 7.78125 8.08594 7.82813 8.10937C7.73438 8.03906 7.6875 7.96875 7.59375 7.96875C7.57031 7.96875 7.52344 7.96875 7.5 7.99219C7.45312 7.96875 7.42969 7.96875 7.40625 7.96875C7.3125 7.96875 7.26563 8.0625 7.17188 8.10937C7.21875 8.08594 7.26562 8.03906 7.33594 8.01563C7.40625 7.99219 7.45312 8.01563 7.5 8.01563" fill="#85340A"/>
<path d="M7.5 8.08594C7.45312 8.08594 7.42969 8.0625 7.35937 8.08594C7.3125 8.08594 7.26563 8.08594 7.19531 8.10938H7.17188C7.38281 8.13282 7.28906 8.25 7.5 8.25C7.71094 8.25 7.61719 8.13282 7.82813 8.10938H7.78125C7.59375 8.03907 7.57031 8.08594 7.5 8.08594V8.08594ZM7.5 8.20313C7.33594 8.20313 7.38281 8.08594 7.19531 8.08594C7.38281 8.03907 7.40625 8.10938 7.5 8.10938C7.57031 8.10938 7.61719 8.0625 7.80469 8.08594C7.61719 8.10938 7.66406 8.20313 7.5 8.20313ZM7.5 8.25C7.40625 8.25 7.3125 8.32032 7.3125 8.4375C7.33594 8.34375 7.40625 8.29688 7.5 8.29688C7.59375 8.29688 7.66406 8.36719 7.6875 8.4375C7.6875 8.32032 7.59375 8.25 7.5 8.25ZM7.35937 7.14844C7.40625 7.19532 7.42969 7.26563 7.42969 7.3125C7.45313 7.42969 7.40625 7.54688 7.3125 7.6875C7.3125 7.6875 7.33594 7.6875 7.35937 7.71094C7.42969 7.54688 7.47656 7.40625 7.45312 7.24219C7.45312 7.19532 7.42969 7.17188 7.42969 7.125C7.21875 6.9375 6.91406 6.91407 6.67969 7.21875C6.91406 7.00782 7.21875 6.98438 7.35937 7.14844" fill="#85340A"/>
<path d="M7.21878 7.24219C7.28909 7.28906 7.31253 7.3125 7.33597 7.3125C7.3594 7.3125 7.3594 7.28906 7.3594 7.28906C7.3594 7.28906 7.31253 7.28906 7.26565 7.24219C7.19534 7.19531 7.1719 7.17188 7.05472 7.17188C6.84378 7.17188 6.72659 7.33594 6.75003 7.33594C6.77347 7.33594 6.86722 7.19531 7.05472 7.19531C7.10159 7.19531 7.1719 7.19531 7.21878 7.24219" fill="#85340A"/>
<path d="M6.82031 7.33594C6.86719 7.38281 6.96094 7.40625 7.05469 7.40625C7.125 7.40625 7.21875 7.38281 7.28906 7.33594C7.21875 7.26562 7.125 7.21875 7.03125 7.21875C6.96094 7.21875 6.86719 7.26562 6.82031 7.33594ZM6.86719 7.33594C6.91406 7.28906 6.96094 7.24219 7.00781 7.24219C6.98437 7.26563 6.96094 7.28906 6.96094 7.3125C6.96094 7.35938 6.98437 7.38281 7.00781 7.38281C6.96094 7.40625 6.89062 7.38281 6.86719 7.33594V7.33594ZM7.21875 7.3125C7.19531 7.33594 7.14844 7.35938 7.10156 7.38281C7.125 7.35938 7.125 7.33594 7.125 7.3125C7.125 7.28906 7.10156 7.26563 7.10156 7.24219C7.17187 7.26563 7.21875 7.28906 7.21875 7.3125Z" fill="#85340A"/>
<path d="M7.33594 7.35938C7.3125 7.35938 7.28906 7.38281 7.21875 7.42969C7.14844 7.47656 7.00781 7.47656 6.82031 7.38281C6.98437 7.52344 7.17187 7.5 7.26562 7.45312C7.35937 7.38281 7.35937 7.35938 7.33594 7.35938" fill="#85340A"/>
</svg>