<svg width="15" height="15" viewBox="0 0 15 15" fill="none" xmlns="http://www.w3.org/2000/svg">
<path d="M7.5 0.46875V2.8125H2.8125V7.5H0.46875C0.46875 11.3906 3.60937 14.5312 7.5 14.5312C11.3906 14.5312 14.5312 11.3906 14.5312 7.5C14.5312 3.60937 11.3906 0.46875 7.5 0.46875Z" fill="#2A5F9E"/>
<path d="M7.5 0.46875C6.39844 0.46875 5.36719 0.726563 4.42969 1.17188V2.57812H2.57812V4.42969H1.17188C0.726563 5.36719 0.46875 6.39844 0.46875 7.5H3.28125V3.98438L6.09375 7.5H7.5V5.74219L5.53125 3.28125H7.5V0.46875Z" fill="white"/>
<path d="M3.60938 3.28125L7.03125 7.5H7.5V6.35156L5.01562 3.28125H3.60938Z" fill="#ED4C5C"/>
<path d="M7.5 1.17188H4.42969C3.02344 1.85156 1.85156 3.02344 1.17188 4.42969V7.5H2.57812V2.57812H7.5V1.17188Z" fill="#ED4C5C"/>
<path d="M1.875 8.36719L2.39062 7.73438L2.22656 8.55469L3.04688 8.57812L2.32031 8.95313L2.8125 9.60938L2.08594 9.28125L1.875 10.0781L1.66406 9.28125L0.9375 9.60938L1.42969 8.95313L0.703125 8.57812L1.52344 8.55469L1.35938 7.73438L1.875 8.36719ZM12.1875 4.73438L12.6094 4.21875L12.4688 4.875L13.125 4.89844L12.5391 5.20313L12.9375 5.71875L12.3516 5.4375L12.1875 6.09375L12.0234 5.4375L11.4375 5.71875L11.8359 5.20313L11.25 4.89844L11.9062 4.875L11.7656 4.21875L12.1875 4.73438ZM12.1875 9.42188L12.6094 8.90625L12.4688 9.5625L13.125 9.58594L12.5391 9.89063L12.9375 10.4063L12.3516 10.125L12.1875 10.7812L12.0234 10.125L11.4375 10.4063L11.8359 9.89063L11.25 9.58594L11.9062 9.5625L11.7656 8.90625L12.1875 9.42188ZM9.84375 6.14063L10.2656 5.625L10.125 6.28125L10.7812 6.30469L10.1953 6.60938L10.5938 7.125L10.0078 6.84375L9.84375 7.5L9.67969 6.84375L9.09375 7.125L9.49219 6.60938L8.90625 6.30469L9.5625 6.28125L9.42188 5.625L9.84375 6.14063Z" fill="white"/>
</svg>