<svg width="15" height="15" viewBox="0 0 15 15" fill="none" xmlns="http://www.w3.org/2000/svg">
<path d="M3.98438 13.5938V1.40625C1.875 2.625 0.46875 4.89844 0.46875 7.5C0.46875 10.1016 1.875 12.375 3.98438 13.5938Z" fill="#699635"/>
<path d="M7.5 0.46875C6.21094 0.46875 5.01563 0.820312 3.98438 1.40625V13.5938C5.01563 14.2031 6.21094 14.5312 7.5 14.5312C11.3906 14.5312 14.5312 11.3906 14.5312 7.5C14.5312 3.60937 11.3906 0.46875 7.5 0.46875Z" fill="#ED4C5C"/>
<path d="M3.98438 4.6875C2.4375 4.6875 1.17188 5.95313 1.17188 7.5C1.17188 9.04687 2.4375 10.3125 3.98438 10.3125C5.53125 10.3125 6.79688 9.04687 6.79688 7.5C6.79688 5.95313 5.53125 4.6875 3.98438 4.6875ZM3.98438 9.96094C2.625 9.96094 1.52344 8.85938 1.52344 7.5C1.52344 6.14062 2.625 5.03906 3.98438 5.03906C5.34375 5.03906 6.44531 6.14062 6.44531 7.5C6.44531 8.85938 5.34375 9.96094 3.98438 9.96094Z" fill="#FFE62E"/>
<path d="M4.94531 10.2422C4.89844 10.2891 4.82812 10.2891 4.78125 10.2422L1.57031 6C1.52344 5.95312 1.52344 5.88281 1.57031 5.83594L1.64063 5.76563C1.6875 5.71875 1.75781 5.71875 1.80469 5.76563L5.01562 10.0078C5.0625 10.0547 5.0625 10.125 5.01562 10.1719L4.94531 10.2422" fill="#FFE62E"/>
<path d="M4.03125 4.57031C4.10156 4.57031 4.14844 4.61719 4.14844 4.6875V10.3125C4.14844 10.3828 4.10156 10.4297 4.03125 10.4297H3.91406C3.84375 10.4297 3.79688 10.3828 3.79688 10.3125V4.6875C3.79688 4.61719 3.84375 4.57031 3.91406 4.57031H4.03125Z" fill="#FFE62E"/>
<path d="M6.77345 7.80469L3.98438 7.31251V7.66407L6.72657 8.15626C6.79688 8.15626 6.84376 8.13282 6.8672 8.06251L6.89063 7.94532C6.89063 7.89845 6.84376 7.82813 6.77345 7.80469V7.80469ZM3.98438 7.28907L1.78126 5.7422C1.73438 5.69532 1.66407 5.71876 1.6172 5.76563L1.54688 5.85938C1.50001 5.90626 1.52345 5.97657 1.57032 6.02345L3.98438 7.71095V7.28907" fill="#FFE62E"/>
<path d="M3.89063 7.03125L1.68751 9.23438C1.64063 9.28125 1.64063 9.35156 1.68751 9.39844L1.78126 9.49219C1.82813 9.53906 1.89844 9.53906 1.94532 9.49219L3.89063 7.54688V7.03125ZM3.98438 5.97656L1.05469 7.35937C1.00782 7.38281 0.960945 7.45312 1.00782 7.52344L1.05469 7.64062C1.07813 7.6875 1.14844 7.73437 1.21876 7.6875L3.98438 6.375V5.97656Z" fill="#FFE62E"/>
<path d="M6.58594 6.375L3.79688 5.88281V6.23438L6.53906 6.72656C6.60938 6.72656 6.65625 6.70312 6.67969 6.63281L6.70313 6.51562C6.67969 6.44531 6.63281 6.375 6.58594 6.375V6.375ZM3.96094 9.11719C3.91406 9.14063 3.86719 9.21094 3.91406 9.28125L3.96094 9.39844C3.98437 9.44531 4.05469 9.49219 4.125 9.44531L6.46875 8.36719L6.58594 7.92187L3.96094 9.11719V9.11719ZM3.96094 8.32031L1.33594 7.35937V7.73437L3.96094 8.69531V8.32031Z" fill="#FFE62E"/>
<path d="M2.13281 9.09375V9.44531L5.60156 9.67969C5.74219 9.58594 5.85937 9.46875 5.97656 9.35156L2.13281 9.09375Z" fill="#FFE62E"/>
<path d="M2.8125 6.32812V7.96875C2.8125 8.625 3.32813 9.14062 3.98438 9.14062C4.64062 9.14062 5.15625 8.625 5.15625 7.96875V6.32812H2.8125Z" fill="white"/>
<path d="M3.98438 9.60938C3.07031 9.60938 2.34375 8.88281 2.34375 7.96875V5.85938H5.625V7.96875C5.625 8.88281 4.89844 9.60938 3.98438 9.60938ZM3.28125 6.79688V7.96875C3.28125 8.36719 3.58594 8.67188 3.98438 8.67188C4.38281 8.67188 4.6875 8.36719 4.6875 7.96875V6.79688H3.28125Z" fill="#ED4C5C"/>
<path d="M3.77344 6.89063V7.26563C3.77344 7.33594 3.82031 7.38281 3.89062 7.38281H4.07812C4.14844 7.38281 4.19531 7.33594 4.19531 7.26563V6.86719H3.77344V6.89063ZM3.77344 7.47656V7.875C3.77344 7.94531 3.82031 7.99219 3.89062 7.99219H4.07812C4.14844 7.99219 4.19531 7.94531 4.19531 7.875V7.47656H3.77344V7.47656ZM3.30469 7.47656V7.875C3.30469 7.94531 3.35156 7.99219 3.42187 7.99219H3.60937C3.67969 7.99219 3.72656 7.94531 3.72656 7.875V7.47656H3.30469ZM4.24219 7.47656V7.875C4.24219 7.94531 4.28906 7.99219 4.35937 7.99219H4.54687C4.61719 7.99219 4.66406 7.94531 4.66406 7.875V7.47656H4.24219ZM3.77344 8.03906V8.4375C3.77344 8.50781 3.82031 8.55469 3.89062 8.55469H4.07812C4.14844 8.55469 4.19531 8.50781 4.19531 8.4375V8.03906H3.77344" fill="#0071BC"/>
<path d="M3.98438 7.75781C4.01026 7.75781 4.03125 7.73683 4.03125 7.71094C4.03125 7.68505 4.01026 7.66406 3.98438 7.66406C3.95849 7.66406 3.9375 7.68505 3.9375 7.71094C3.9375 7.73683 3.95849 7.75781 3.98438 7.75781Z" fill="white"/>
<path d="M3.89063 7.875C3.91651 7.875 3.9375 7.85401 3.9375 7.82813C3.9375 7.80224 3.91651 7.78125 3.89063 7.78125C3.86474 7.78125 3.84375 7.80224 3.84375 7.82813C3.84375 7.85401 3.86474 7.875 3.89063 7.875Z" fill="white"/>
<path d="M4.07812 7.875C4.10401 7.875 4.125 7.85401 4.125 7.82813C4.125 7.80224 4.10401 7.78125 4.07812 7.78125C4.05224 7.78125 4.03125 7.80224 4.03125 7.82813C4.03125 7.85401 4.05224 7.875 4.07812 7.875Z" fill="white"/>
<path d="M3.89063 7.64062C3.91651 7.64062 3.9375 7.61964 3.9375 7.59375C3.9375 7.56786 3.91651 7.54688 3.89063 7.54688C3.86474 7.54688 3.84375 7.56786 3.84375 7.59375C3.84375 7.61964 3.86474 7.64062 3.89063 7.64062Z" fill="white"/>
<path d="M4.07812 7.64062C4.10401 7.64062 4.125 7.61964 4.125 7.59375C4.125 7.56786 4.10401 7.54688 4.07812 7.54688C4.05224 7.54688 4.03125 7.56786 4.03125 7.59375C4.03125 7.61964 4.05224 7.64062 4.07812 7.64062Z" fill="white"/>
<path d="M3.98438 7.17187C4.01026 7.17187 4.03125 7.15089 4.03125 7.125C4.03125 7.09911 4.01026 7.07812 3.98438 7.07812C3.95849 7.07812 3.9375 7.09911 3.9375 7.125C3.9375 7.15089 3.95849 7.17187 3.98438 7.17187Z" fill="white"/>
<path d="M3.89063 7.28906C3.91651 7.28906 3.9375 7.26808 3.9375 7.24219C3.9375 7.2163 3.91651 7.19531 3.89063 7.19531C3.86474 7.19531 3.84375 7.2163 3.84375 7.24219C3.84375 7.26808 3.86474 7.28906 3.89063 7.28906Z" fill="white"/>
<path d="M4.07812 7.28906C4.10401 7.28906 4.125 7.26808 4.125 7.24219C4.125 7.2163 4.10401 7.19531 4.07812 7.19531C4.05224 7.19531 4.03125 7.2163 4.03125 7.24219C4.03125 7.26808 4.05224 7.28906 4.07812 7.28906Z" fill="white"/>
<path d="M3.89063 7.05469C3.91651 7.05469 3.9375 7.0337 3.9375 7.00781C3.9375 6.98192 3.91651 6.96094 3.89063 6.96094C3.86474 6.96094 3.84375 6.98192 3.84375 7.00781C3.84375 7.0337 3.86474 7.05469 3.89063 7.05469Z" fill="white"/>
<path d="M4.07812 7.05469C4.10401 7.05469 4.125 7.0337 4.125 7.00781C4.125 6.98192 4.10401 6.96094 4.07812 6.96094C4.05224 6.96094 4.03125 6.98192 4.03125 7.00781C4.03125 7.0337 4.05224 7.05469 4.07812 7.05469Z" fill="white"/>
<path d="M4.45313 7.75781C4.47901 7.75781 4.5 7.73683 4.5 7.71094C4.5 7.68505 4.47901 7.66406 4.45313 7.66406C4.42724 7.66406 4.40625 7.68505 4.40625 7.71094C4.40625 7.73683 4.42724 7.75781 4.45313 7.75781Z" fill="white"/>
<path d="M4.35938 7.875C4.38526 7.875 4.40625 7.85401 4.40625 7.82813C4.40625 7.80224 4.38526 7.78125 4.35938 7.78125C4.33349 7.78125 4.3125 7.80224 4.3125 7.82813C4.3125 7.85401 4.33349 7.875 4.35938 7.875Z" fill="white"/>
<path d="M4.54687 7.875C4.57276 7.875 4.59375 7.85401 4.59375 7.82813C4.59375 7.80224 4.57276 7.78125 4.54687 7.78125C4.52099 7.78125 4.5 7.80224 4.5 7.82813C4.5 7.85401 4.52099 7.875 4.54687 7.875Z" fill="white"/>
<path d="M4.35938 7.64062C4.38526 7.64062 4.40625 7.61964 4.40625 7.59375C4.40625 7.56786 4.38526 7.54688 4.35938 7.54688C4.33349 7.54688 4.3125 7.56786 4.3125 7.59375C4.3125 7.61964 4.33349 7.64062 4.35938 7.64062Z" fill="white"/>
<path d="M4.54687 7.64062C4.57276 7.64062 4.59375 7.61964 4.59375 7.59375C4.59375 7.56786 4.57276 7.54688 4.54687 7.54688C4.52099 7.54688 4.5 7.56786 4.5 7.59375C4.5 7.61964 4.52099 7.64062 4.54687 7.64062Z" fill="white"/>
<path d="M3.51562 7.75781C3.54151 7.75781 3.5625 7.73683 3.5625 7.71094C3.5625 7.68505 3.54151 7.66406 3.51562 7.66406C3.48974 7.66406 3.46875 7.68505 3.46875 7.71094C3.46875 7.73683 3.48974 7.75781 3.51562 7.75781Z" fill="white"/>
<path d="M3.42188 7.875C3.44776 7.875 3.46875 7.85401 3.46875 7.82813C3.46875 7.80224 3.44776 7.78125 3.42188 7.78125C3.39599 7.78125 3.375 7.80224 3.375 7.82813C3.375 7.85401 3.39599 7.875 3.42188 7.875Z" fill="white"/>
<path d="M3.60937 7.875C3.63526 7.875 3.65625 7.85401 3.65625 7.82813C3.65625 7.80224 3.63526 7.78125 3.60937 7.78125C3.58349 7.78125 3.5625 7.80224 3.5625 7.82813C3.5625 7.85401 3.58349 7.875 3.60937 7.875Z" fill="white"/>
<path d="M3.42188 7.64062C3.44776 7.64062 3.46875 7.61964 3.46875 7.59375C3.46875 7.56786 3.44776 7.54688 3.42188 7.54688C3.39599 7.54688 3.375 7.56786 3.375 7.59375C3.375 7.61964 3.39599 7.64062 3.42188 7.64062Z" fill="white"/>
<path d="M3.60937 7.64062C3.63526 7.64062 3.65625 7.61964 3.65625 7.59375C3.65625 7.56786 3.63526 7.54688 3.60937 7.54688C3.58349 7.54688 3.5625 7.56786 3.5625 7.59375C3.5625 7.61964 3.58349 7.64062 3.60937 7.64062Z" fill="white"/>
<path d="M3.98438 8.34375C4.01026 8.34375 4.03125 8.32276 4.03125 8.29688C4.03125 8.27099 4.01026 8.25 3.98438 8.25C3.95849 8.25 3.9375 8.27099 3.9375 8.29688C3.9375 8.32276 3.95849 8.34375 3.98438 8.34375Z" fill="white"/>
<path d="M3.89063 8.46094C3.91651 8.46094 3.9375 8.43995 3.9375 8.41406C3.9375 8.38817 3.91651 8.36719 3.89063 8.36719C3.86474 8.36719 3.84375 8.38817 3.84375 8.41406C3.84375 8.43995 3.86474 8.46094 3.89063 8.46094Z" fill="white"/>
<path d="M4.07812 8.46094C4.10401 8.46094 4.125 8.43995 4.125 8.41406C4.125 8.38817 4.10401 8.36719 4.07812 8.36719C4.05224 8.36719 4.03125 8.38817 4.03125 8.41406C4.03125 8.43995 4.05224 8.46094 4.07812 8.46094Z" fill="white"/>
<path d="M3.89063 8.22656C3.91651 8.22656 3.9375 8.20558 3.9375 8.17969C3.9375 8.1538 3.91651 8.13281 3.89063 8.13281C3.86474 8.13281 3.84375 8.1538 3.84375 8.17969C3.84375 8.20558 3.86474 8.22656 3.89063 8.22656Z" fill="white"/>
<path d="M4.07812 8.22656C4.10401 8.22656 4.125 8.20558 4.125 8.17969C4.125 8.1538 4.10401 8.13281 4.07812 8.13281C4.05224 8.13281 4.03125 8.1538 4.03125 8.17969C4.03125 8.20558 4.05224 8.22656 4.07812 8.22656Z" fill="white"/>
<path d="M3.75 6.5625H4.21875L4.17187 6.32812V6.09375H4.21875V5.97656H4.14844V6.04687H4.125V5.97656H4.05469V6.04687H4.00781V5.97656H3.96094V6.04687H3.91406V5.97656H3.84375V6.04687H3.79688V5.97656H3.75V6.09375H3.79688V6.32812L3.75 6.5625Z" fill="#FFE62E"/>
<path d="M4.05469 6.5625H4.03125V6.46875C4.03125 6.44531 4.00781 6.42187 3.98438 6.42187C3.96094 6.42187 3.9375 6.44531 3.9375 6.46875V6.5625H3.91406V6.46875C3.91406 6.42187 3.9375 6.39844 3.98438 6.39844C4.03125 6.39844 4.05469 6.42187 4.05469 6.46875V6.5625ZM3.98438 6.30469H3.84375V6.1875C3.84375 6.14062 3.86719 6.11719 3.91406 6.11719C3.96094 6.11719 3.98438 6.14062 3.98438 6.1875V6.30469ZM3.86719 6.28125H3.96094V6.1875C3.96094 6.16406 3.9375 6.14063 3.91406 6.14063C3.89063 6.14063 3.86719 6.16406 3.86719 6.1875V6.28125ZM4.125 6.30469H3.98438V6.1875C3.98438 6.14062 4.00781 6.11719 4.05469 6.11719C4.10156 6.11719 4.125 6.14062 4.125 6.1875V6.30469ZM4.00781 6.28125H4.10156V6.1875C4.10156 6.16406 4.07812 6.14063 4.05469 6.14063C4.03125 6.14063 4.00781 6.16406 4.00781 6.1875V6.28125Z" fill="#3E4347"/>
<path d="M2.57812 6.5625H3.04688L3 6.32812V6.09375H3.04688V5.97656H2.97656V6.04687H2.95313V5.97656H2.88281V6.04687H2.83594V5.97656H2.78906V6.04687H2.74219V5.97656H2.67187V6.04687H2.625V5.97656H2.57812V6.09375H2.625V6.32812L2.57812 6.5625Z" fill="#FFE62E"/>
<path d="M2.88281 6.5625H2.85938V6.46875C2.85938 6.44531 2.83594 6.42187 2.8125 6.42187C2.78906 6.42187 2.76563 6.44531 2.76563 6.46875V6.5625H2.74219V6.46875C2.74219 6.42187 2.76563 6.39844 2.8125 6.39844C2.85938 6.39844 2.88281 6.42187 2.88281 6.46875V6.5625V6.5625ZM2.8125 6.30469H2.67188V6.1875C2.67188 6.14062 2.69531 6.11719 2.74219 6.11719C2.78906 6.11719 2.8125 6.14062 2.8125 6.1875V6.30469V6.30469ZM2.69531 6.28125H2.78906V6.1875C2.78906 6.16406 2.76563 6.14063 2.74219 6.14063C2.71875 6.14063 2.69531 6.16406 2.69531 6.1875V6.28125" fill="#3E4347"/>
<path d="M2.95313 6.30469H2.8125V6.1875C2.8125 6.14062 2.83594 6.11719 2.88281 6.11719C2.92969 6.11719 2.95313 6.14062 2.95313 6.1875V6.30469V6.30469ZM2.83594 6.28125H2.92969V6.1875C2.92969 6.16406 2.90625 6.14063 2.88281 6.14063C2.85938 6.14063 2.83594 6.16406 2.83594 6.1875V6.28125" fill="#3E4347"/>
<path d="M2.57812 7.94531H3.04688L3 7.71094V7.47656H3.04688V7.35938H3V7.42969H2.95313V7.35938H2.90625V7.42969H2.83594V7.35938H2.78906V7.42969H2.74219V7.35938H2.69531V7.42969H2.64844V7.35938H2.57812V7.47656H2.64844V7.71094L2.57812 7.94531Z" fill="#FFE62E"/>
<path d="M2.88281 7.94531H2.85938V7.85156C2.85938 7.82812 2.83594 7.80469 2.8125 7.80469C2.78906 7.80469 2.76563 7.82812 2.76563 7.85156V7.94531H2.74219V7.85156C2.74219 7.80469 2.76563 7.78125 2.8125 7.78125C2.85938 7.78125 2.88281 7.80469 2.88281 7.85156V7.94531V7.94531ZM2.8125 7.6875H2.67188V7.57031C2.67188 7.52344 2.69531 7.5 2.74219 7.5C2.78906 7.5 2.8125 7.52344 2.8125 7.57031V7.6875V7.6875ZM2.69531 7.66406H2.78906V7.57031C2.78906 7.54687 2.76563 7.52344 2.74219 7.52344C2.71875 7.52344 2.69531 7.54687 2.69531 7.57031V7.66406V7.66406ZM2.97656 7.6875H2.83594V7.57031C2.83594 7.52344 2.85938 7.5 2.90625 7.5C2.95313 7.5 2.97656 7.52344 2.97656 7.57031V7.6875V7.6875ZM2.85938 7.66406H2.95313V7.57031C2.95313 7.54687 2.92969 7.52344 2.90625 7.52344C2.88281 7.52344 2.85938 7.54687 2.85938 7.57031V7.66406" fill="#3E4347"/>
<path d="M4.92188 7.96875H5.39062L5.34375 7.73437V7.5H5.39062V7.40625H5.32031V7.45312H5.29688V7.40625H5.22656V7.45312H5.17969V7.40625H5.13281V7.45312H5.08594V7.40625H5.01562V7.45312H4.96875V7.40625H4.92188V7.5H4.96875V7.73437L4.92188 7.96875Z" fill="#FFE62E"/>
<path d="M5.22656 7.96875H5.20313V7.875C5.20313 7.85156 5.17969 7.82813 5.15625 7.82813C5.13281 7.82813 5.10937 7.85156 5.10937 7.875V7.96875H5.08594V7.875C5.08594 7.82812 5.10938 7.80469 5.15625 7.80469C5.20313 7.80469 5.22656 7.82812 5.22656 7.875V7.96875ZM5.15625 7.71094H5.01562V7.59375C5.01562 7.54688 5.03906 7.52344 5.08594 7.52344C5.13281 7.52344 5.15625 7.54688 5.15625 7.59375V7.71094ZM5.03906 7.6875H5.13281V7.59375C5.13281 7.57031 5.10938 7.54688 5.08594 7.54688C5.0625 7.54688 5.03906 7.57031 5.03906 7.59375V7.6875ZM5.29688 7.71094H5.15625V7.59375C5.15625 7.54688 5.17969 7.52344 5.22656 7.52344C5.27344 7.52344 5.29688 7.54688 5.29688 7.59375V7.71094ZM5.17969 7.6875H5.27344V7.59375C5.27344 7.57031 5.25 7.54688 5.22656 7.54688C5.20312 7.54688 5.17969 7.57031 5.17969 7.59375V7.6875Z" fill="#3E4347"/>
<path d="M4.92188 6.5625H5.39062L5.34375 6.32812V6.09375H5.39062V5.97656H5.32031V6.04687H5.29688V5.97656H5.22656V6.04687H5.17969V5.97656H5.13281V6.04687H5.08594V5.97656H5.01562V6.04687H4.96875V5.97656H4.92188V6.09375H4.96875V6.32812L4.92188 6.5625Z" fill="#FFE62E"/>
<path d="M5.22656 6.5625H5.20313V6.46875C5.20313 6.44531 5.17969 6.42187 5.15625 6.42187C5.13281 6.42187 5.10937 6.44531 5.10937 6.46875V6.5625H5.08594V6.46875C5.08594 6.42187 5.10938 6.39844 5.15625 6.39844C5.20313 6.39844 5.22656 6.42187 5.22656 6.46875V6.5625ZM5.15625 6.30469H5.01562V6.1875C5.01562 6.14062 5.03906 6.11719 5.08594 6.11719C5.13281 6.11719 5.15625 6.14062 5.15625 6.1875V6.30469ZM5.03906 6.28125H5.13281V6.1875C5.13281 6.16406 5.10938 6.14063 5.08594 6.14063C5.0625 6.14063 5.03906 6.16406 5.03906 6.1875V6.28125ZM5.29688 6.30469H5.15625V6.1875C5.15625 6.14062 5.17969 6.11719 5.22656 6.11719C5.27344 6.11719 5.29688 6.14062 5.29688 6.1875V6.30469ZM5.17969 6.28125H5.27344V6.1875C5.27344 6.16406 5.25 6.14063 5.22656 6.14063C5.20312 6.14063 5.17969 6.16406 5.17969 6.1875V6.28125Z" fill="#3E4347"/>
<path d="M3.32812 9.28125L3.65625 8.92969L3.44531 8.8125L3.28125 8.64844L3.32812 8.60156L3.25781 8.53125L3.21094 8.57812L3.25781 8.625L3.23438 8.64844L3.1875 8.60156L3.14062 8.64844L3.1875 8.67187L3.14062 8.71875L3.11719 8.67187L3.07031 8.71875L3.11719 8.76562L3.07031 8.78906L3.04688 8.74219L3 8.78906L3.02344 8.83594L3 8.85937L2.97656 8.8125L2.92969 8.85937L3 8.92969H3.02344L3.04688 8.90625L3.21094 9.07031L3.32812 9.28125Z" fill="#FFE62E"/>
<path d="M3.53906 9.04687L3.44531 9C3.42188 8.97656 3.39844 8.97656 3.375 9C3.35156 9.02344 3.35156 9.04688 3.375 9.07031L3.44531 9.14063L3.42188 9.16406L3.35156 9.09375C3.32813 9.07031 3.32813 9.02344 3.35156 9C3.375 8.97656 3.42188 8.97656 3.44531 9L3.53906 9.04687ZM3.30469 8.92969L3.21094 9.02344L3.14063 8.95313C3.11719 8.92969 3.11719 8.88281 3.14063 8.85937C3.16406 8.83594 3.21094 8.83594 3.23438 8.85937L3.30469 8.92969ZM3.21094 9L3.28125 8.92969L3.21094 8.85937C3.1875 8.83594 3.16406 8.83594 3.14063 8.85937C3.11719 8.88281 3.11719 8.90625 3.14063 8.92969L3.21094 9ZM3.42188 8.8125L3.32813 8.90625L3.25781 8.83594C3.23437 8.8125 3.23437 8.76563 3.25781 8.74219C3.28125 8.71875 3.32813 8.71875 3.35156 8.74219L3.42188 8.8125ZM3.32813 8.88281L3.39844 8.8125L3.32813 8.74219C3.30469 8.71875 3.28125 8.71875 3.25781 8.74219C3.23437 8.76563 3.23437 8.78906 3.25781 8.8125L3.32813 8.88281Z" fill="#3E4347"/>
<path d="M4.64062 9.28125L4.3125 8.92969L4.5 8.8125L4.66406 8.64844L4.64062 8.60156L4.71094 8.53125L4.75781 8.57812L4.71094 8.625L4.73438 8.64844L4.78125 8.60156L4.82813 8.64844L4.78125 8.67187L4.82813 8.71875L4.85156 8.67187L4.89844 8.71875L4.85156 8.76562L4.89844 8.78906L4.92188 8.74219L4.96875 8.78906L4.92188 8.83594L4.96875 8.85937L4.99219 8.8125L5.03906 8.85937L4.96875 8.92969H4.94531L4.92188 8.90625L4.75781 9.07031L4.64062 9.28125Z" fill="#FFE62E"/>
<path d="M4.42969 9.04687L4.52344 9C4.54687 8.97656 4.57031 8.97656 4.59375 9C4.61719 9.02344 4.61719 9.04688 4.59375 9.07031L4.5 9.14063L4.52344 9.16406L4.59375 9.09375C4.61719 9.07031 4.61719 9.02344 4.59375 9C4.57031 8.97656 4.52344 8.97656 4.5 9L4.42969 9.04687V9.04687ZM4.73438 8.85937C4.75781 8.83594 4.80469 8.83594 4.82813 8.85937C4.85156 8.88281 4.85156 8.92969 4.82813 8.95313L4.75781 9.02344L4.66406 8.92969L4.73438 8.85937ZM4.80469 8.92969C4.82813 8.90625 4.82813 8.88281 4.80469 8.85937C4.78125 8.83594 4.75781 8.83594 4.73438 8.85937L4.6875 8.92969L4.75781 9L4.80469 8.92969ZM4.61719 8.74219C4.64063 8.71875 4.6875 8.71875 4.71094 8.74219C4.73438 8.76563 4.73438 8.8125 4.71094 8.83594L4.64062 8.90625L4.54688 8.8125L4.61719 8.74219ZM4.71094 8.8125C4.73438 8.78906 4.73438 8.76563 4.71094 8.74219C4.6875 8.71875 4.66406 8.71875 4.64062 8.74219L4.57031 8.8125L4.64062 8.88281L4.71094 8.8125Z" fill="#3E4347"/>
</svg>