<svg width="15" height="15" viewBox="0 0 15 15" fill="none" xmlns="http://www.w3.org/2000/svg">
<path d="M7.5 0.46875C4.42969 0.46875 1.82812 2.4375 0.867188 5.15625H14.1328C13.1719 2.4375 10.5703 0.46875 7.5 0.46875Z" fill="#F9F9F9"/>
<path d="M7.5 14.5312C10.5703 14.5312 13.1719 12.5859 14.1328 9.84375H0.867188C1.82812 12.5859 4.42969 14.5312 7.5 14.5312Z" fill="#ED4C5C"/>
<path d="M0.867188 5.15625C0.609375 5.88281 0.46875 6.67969 0.46875 7.5C0.46875 8.32031 0.609375 9.11719 0.867188 9.84375H14.1328C14.3906 9.11719 14.5312 8.32031 14.5312 7.5C14.5312 6.67969 14.3906 5.88281 14.1328 5.15625H0.867188Z" fill="#428BC1"/>
<path d="M7.94531 4.45312H3.28125V7.6875C3.28125 9.84375 5.53125 10.5 5.625 10.5469C5.71875 10.5 7.96875 9.84375 7.96875 7.6875V4.45312H7.94531Z" fill="#F9F9F9"/>
<path d="M3.75 4.92188V7.71094C3.75 9.02344 4.75781 9.72656 5.625 10.0781C6.49219 9.72656 7.5 9.02344 7.5 7.71094V4.92188H3.75Z" fill="#ED4C5C"/>
<path d="M5.39062 5.39062H5.85938V8.67188H5.39062V5.39062Z" fill="#F9F9F9"/>
<path d="M4.45312 6.79688H6.79688V7.26562H4.45312V6.79688ZM4.92188 5.85938H6.32812V6.32812H4.92188V5.85938Z" fill="#F9F9F9"/>
<path d="M5.625 8.20312C5.32031 8.20312 5.03906 8.34375 4.875 8.57812C4.75781 8.48437 4.61719 8.4375 4.45313 8.4375C4.26563 8.4375 4.07812 8.50781 3.96094 8.64844C4.28906 9.375 4.99219 9.82031 5.625 10.0781C6.25781 9.82031 6.96094 9.375 7.28906 8.64844C7.17188 8.50781 6.98438 8.4375 6.79688 8.4375C6.63281 8.4375 6.49219 8.48437 6.375 8.57812C6.21094 8.34375 5.92969 8.20312 5.625 8.20312Z" fill="#428BC1"/>
</svg>
