<svg width="15" height="15" viewBox="0 0 15 15" fill="none" xmlns="http://www.w3.org/2000/svg">
<path d="M11.25 1.54687C10.1484 0.867187 8.88281 0.46875 7.5 0.46875V1.54687H11.25Z" fill="#ED4C5C"/>
<path d="M7.5 2.625H12.5625C12.1641 2.22656 11.7188 1.85156 11.25 1.54688H7.5V2.625Z" fill="white"/>
<path d="M7.5 3.70313H13.4297C13.1719 3.30469 12.8906 2.95312 12.5859 2.625H7.5V3.70313Z" fill="#ED4C5C"/>
<path d="M7.5 4.78125H13.9922C13.8281 4.40625 13.6406 4.03125 13.4297 3.70312H7.5V4.78125Z" fill="white"/>
<path d="M7.5 5.85938H14.3438C14.25 5.48438 14.1328 5.13281 13.9922 4.78125H7.5V5.85938Z" fill="#ED4C5C"/>
<path d="M7.5 6.96094H14.5078C14.4844 6.58594 14.4141 6.23438 14.3438 5.88281H7.5V6.96094" fill="white"/>
<path d="M14.5078 6.96094H7.5V7.5H0.46875C0.46875 7.6875 0.46875 7.85156 0.492187 8.03906H14.5078C14.5313 7.85156 14.5312 7.6875 14.5312 7.5C14.5312 7.3125 14.5313 7.125 14.5078 6.96094" fill="#ED4C5C"/>
<path d="M0.65625 9.11719H14.3438C14.4375 8.76563 14.4844 8.41406 14.5078 8.03906H0.492188C0.515625 8.39062 0.5625 8.76563 0.65625 9.11719Z" fill="white"/>
<path d="M1.00781 10.1953H13.9922C14.1328 9.84375 14.25 9.49219 14.3438 9.11719H0.65625C0.75 9.49219 0.867188 9.84375 1.00781 10.1953Z" fill="#ED4C5C"/>
<path d="M1.57031 11.2734H13.4297C13.6406 10.9219 13.8281 10.5703 13.9922 10.1953H1.00781C1.17187 10.5703 1.35937 10.9219 1.57031 11.2734" fill="white"/>
<path d="M2.41406 12.3516H12.5859C12.8906 12.0234 13.1953 11.6484 13.4297 11.2734H1.57031C1.80469 11.6719 2.10938 12.0234 2.41406 12.3516Z" fill="#ED4C5C"/>
<path d="M3.72656 13.4297H11.2734C11.7656 13.125 12.1875 12.75 12.5859 12.3516H2.41406C2.8125 12.7734 3.25781 13.125 3.72656 13.4297Z" fill="white"/>
<path d="M7.5 14.5313C8.88281 14.5313 10.1719 14.1328 11.2734 13.4297H3.72656C4.82812 14.1328 6.11719 14.5313 7.5 14.5313Z" fill="#ED4C5C"/>
<path d="M3.75 1.54687C3.25781 1.85156 2.8125 2.22656 2.41406 2.625C2.08594 2.95312 1.80469 3.32813 1.57031 3.70313C1.35937 4.05469 1.14844 4.40625 1.00781 4.78125C0.867188 5.13281 0.75 5.48437 0.65625 5.85938C0.5625 6.21094 0.515625 6.5625 0.492187 6.9375C0.46875 7.125 0.46875 7.3125 0.46875 7.5H7.5V0.46875C6.11719 0.46875 4.85156 0.867187 3.75 1.54687Z" fill="#428BC1"/>
<path d="M5.85938 0.703125L5.97656 1.05469H6.32812L6.04688 1.28906L6.14063 1.64062L5.85938 1.42969L5.57812 1.64062L5.67188 1.28906L5.39062 1.05469H5.74219L5.85938 0.703125ZM6.79688 2.10938L6.91406 2.46094H7.26562L6.98438 2.69531L7.07813 3.04688L6.79688 2.83594L6.51562 3.04688L6.60938 2.69531L6.32812 2.46094H6.67969L6.79688 2.10938ZM4.92188 2.10938L5.03906 2.46094H5.39062L5.10938 2.69531L5.20313 3.04688L4.92188 2.83594L4.64062 3.04688L4.73438 2.69531L4.45312 2.46094H4.80469L4.92188 2.10938ZM5.85938 3.51562L5.97656 3.86719H6.32812L6.04688 4.10156L6.14063 4.45312L5.85938 4.24219L5.57812 4.45312L5.67188 4.10156L5.39062 3.86719H5.74219L5.85938 3.51562ZM3.98438 3.51562L4.10156 3.86719H4.45312L4.17188 4.10156L4.26563 4.45312L3.98438 4.24219L3.70312 4.45312L3.79688 4.10156L3.51562 3.86719H3.86719L3.98438 3.51562ZM2.10938 3.51562L2.22656 3.86719H2.57812L2.29688 4.10156L2.39062 4.45312L2.10938 4.24219L1.82812 4.45312L1.92187 4.10156L1.64062 3.86719H1.99219L2.10938 3.51562ZM6.79688 4.92188L6.91406 5.27344H7.26562L6.98438 5.50781L7.07813 5.85938L6.79688 5.64844L6.51562 5.85938L6.60938 5.50781L6.32812 5.27344H6.67969L6.79688 4.92188ZM4.92188 4.92188L5.03906 5.27344H5.39062L5.10938 5.50781L5.20313 5.85938L4.92188 5.64844L4.64062 5.85938L4.73438 5.50781L4.45312 5.27344H4.80469L4.92188 4.92188ZM3.04688 4.92188L3.16406 5.27344H3.51562L3.23438 5.50781L3.32812 5.85938L3.04688 5.64844L2.76562 5.85938L2.85937 5.50781L2.57812 5.27344H2.92969L3.04688 4.92188ZM5.85938 6.32812L5.97656 6.67969H6.32812L6.04688 6.91406L6.14063 7.26562L5.85938 7.05469L5.57812 7.26562L5.67188 6.91406L5.39062 6.67969H5.74219L5.85938 6.32812ZM3.98438 6.32812L4.10156 6.67969H4.45312L4.17188 6.91406L4.26563 7.26562L3.98438 7.05469L3.70312 7.26562L3.79688 6.91406L3.51562 6.67969H3.86719L3.98438 6.32812ZM2.10938 6.32812L2.22656 6.67969H2.57812L2.29688 6.91406L2.39062 7.26562L2.10938 7.05469L1.82812 7.26562L1.92187 6.91406L1.64062 6.67969H1.99219L2.10938 6.32812ZM2.76562 3.04688L3.04688 2.83594L3.32812 3.04688L3.21094 2.69531L3.49219 2.46094H3.14062L3.04688 2.10938L2.92969 2.46094H2.60156L2.88281 2.67187L2.76562 3.04688ZM0.890625 5.85938L1.17187 5.64844L1.45312 5.85938L1.33594 5.50781L1.61719 5.27344H1.28906L1.17187 4.92188L1.05469 5.27344H0.820312C0.820312 5.29688 0.796875 5.32031 0.796875 5.34375L0.984375 5.48438L0.890625 5.85938Z" fill="white"/>
</svg>
