<svg width="15" height="15" viewBox="0 0 15 15" fill="none" xmlns="http://www.w3.org/2000/svg">
<path d="M7.5 0.46875C4.42969 0.46875 1.82812 2.4375 0.867188 5.15625H14.1328C13.1719 2.4375 10.5703 0.46875 7.5 0.46875Z" fill="#ED4C5C"/>
<path d="M7.5 14.5312C10.5703 14.5312 13.1719 12.5859 14.1328 9.84375H0.867188C1.82812 12.5859 4.42969 14.5312 7.5 14.5312Z" fill="#83BF4F"/>
<path d="M0.867188 5.15625C0.609375 5.88281 0.46875 6.67969 0.46875 7.5C0.46875 8.32031 0.609375 9.11719 0.867188 9.84375H14.1328C14.3906 9.11719 14.5312 8.32031 14.5312 7.5C14.5312 6.67969 14.3906 5.88281 14.1328 5.15625H0.867188Z" fill="#F9F9F9"/>
</svg>
