<svg width="15" height="15" viewBox="0 0 15 15" fill="none" xmlns="http://www.w3.org/2000/svg">
<path d="M7.5 14.5312C10.5703 14.5312 13.1719 12.5859 14.1328 9.84375H0.867188C1.82812 12.5859 4.42969 14.5312 7.5 14.5312Z" fill="#ED4C5C"/>
<path d="M7.5 0.46875C4.42969 0.46875 1.82812 2.4375 0.867188 5.15625H14.1328C13.1719 2.4375 10.5703 0.46875 7.5 0.46875Z" fill="#F9F9F9"/>
<path d="M14.1328 9.84375C14.3906 9.11719 14.5312 8.32031 14.5312 7.5C14.5312 6.67969 14.3906 5.88281 14.1328 5.15625H0.867188C0.609375 5.88281 0.46875 6.67969 0.46875 7.5C0.46875 8.32031 0.609375 9.11719 0.867188 9.84375H14.1328V9.84375Z" fill="#428BC1"/>
<path d="M7.07813 5.69531L7.26562 3.07031C5.78906 2.41406 4.05469 2.41406 2.57812 3.07031L2.76563 5.69531C2.85938 6.86719 3.70313 7.875 4.92188 8.20312C6.14062 7.85156 6.98438 6.86719 7.07813 5.69531Z" fill="#428BC1"/>
<path d="M3.16406 6.04688C3.375 6.89062 4.03125 7.59375 4.92188 7.875C5.8125 7.59375 6.46875 6.89062 6.67969 6.04688L5.78906 4.94531L5.4375 5.39063L4.92188 4.40625L4.40625 5.39063L4.05469 4.94531L3.16406 6.04688Z" fill="white"/>
<path d="M3.23438 6.30469C3.39844 6.5625 3.75 6.65625 4.03125 6.51562C4.21875 6.42187 4.42969 6.42187 4.61719 6.51562C4.80469 6.60937 5.01563 6.60937 5.20313 6.51562C5.39063 6.42187 5.60156 6.42187 5.78906 6.51562C6.07031 6.65625 6.42188 6.58594 6.58594 6.30469V6.46875C6.42188 6.72656 6.07031 6.82031 5.78906 6.67969C5.625 6.5625 5.39063 6.5625 5.20313 6.67969C5.01563 6.77344 4.80469 6.77344 4.61719 6.67969C4.45313 6.5625 4.21875 6.5625 4.03125 6.67969C3.75 6.82031 3.39844 6.75 3.23438 6.46875V6.30469" fill="#428BC1"/>
<path d="M3.23438 6.63281C3.39844 6.89063 3.75 6.98438 4.03125 6.84375C4.21875 6.75 4.42969 6.75 4.61719 6.84375C4.80469 6.9375 5.01563 6.9375 5.20313 6.84375C5.39063 6.75 5.60156 6.75 5.78906 6.84375C6.07031 6.98438 6.42188 6.91406 6.58594 6.63281V6.79688C6.42188 7.05469 6.07031 7.14844 5.78906 7.00781C5.60156 6.91406 5.39063 6.91406 5.20313 7.00781C5.01563 7.10156 4.80469 7.10156 4.61719 7.00781C4.42969 6.91406 4.21875 6.91406 4.03125 7.00781C3.75 7.14844 3.39844 7.07813 3.23438 6.79688V6.63281" fill="#428BC1"/>
<path d="M2.74219 3L2.92969 5.67187C3 6.77344 3.79687 7.71094 4.92188 8.03906C6.04688 7.71094 6.82031 6.77344 6.91406 5.67187L7.10156 3C7.14844 3.02344 7.21875 3.04688 7.26562 3.07031L7.07813 5.69531C6.98438 6.86719 6.14062 7.875 4.92188 8.20312C3.70313 7.85156 2.85938 6.86719 2.76563 5.69531L2.57812 3.07031C2.625 3.04688 2.69531 3.02344 2.74219 3" fill="#ED4C5C"/>
<path d="M3.98438 2.78906L4.03125 2.95313L4.21875 2.90625L4.07812 3.04688L4.21875 3.1875L4.03125 3.14062L3.98438 3.30469L3.9375 3.14062L3.75 3.1875L3.89063 3.04688L3.75 2.90625L3.9375 2.95313L3.98438 2.78906ZM5.85938 2.78906L5.90625 2.95313L6.09375 2.90625L5.95312 3.04688L6.09375 3.1875L5.90625 3.14062L5.85938 3.30469L5.8125 3.14062L5.625 3.1875L5.76563 3.04688L5.625 2.90625L5.8125 2.95313L5.85938 2.78906ZM4.92188 3.46875L4.96875 3.63281L5.15625 3.60938L5.01562 3.72656L5.15625 3.86719L4.96875 3.82031L4.92188 3.98438L4.875 3.82031L4.6875 3.86719L4.82813 3.72656L4.6875 3.60938L4.875 3.63281L4.92188 3.46875Z" fill="#FFE62E"/>
</svg>
