<svg width="15" height="16" viewBox="0 0 15 16" fill="none" xmlns="http://www.w3.org/2000/svg">
<path d="M7.5 0.5C3.35826 0.5 0 3.85826 0 8C0 12.1417 3.35826 15.5 7.5 15.5C11.6417 15.5 15 12.1417 15 8C15 3.85826 11.6417 0.5 7.5 0.5ZM10.7143 8.40179C10.7143 8.47545 10.654 8.53571 10.5804 8.53571H8.03571V11.0804C8.03571 11.154 7.97545 11.2143 7.90179 11.2143H7.09821C7.02455 11.2143 6.96429 11.154 6.96429 11.0804V8.53571H4.41964C4.34598 8.53571 4.28571 8.47545 4.28571 8.40179V7.59821C4.28571 7.52455 4.34598 7.46429 4.41964 7.46429H6.96429V4.91964C6.96429 4.84598 7.02455 4.78571 7.09821 4.78571H7.90179C7.97545 4.78571 8.03571 4.84598 8.03571 4.91964V7.46429H10.5804C10.654 7.46429 10.7143 7.52455 10.7143 7.59821V8.40179Z" fill="#989390"/>
</svg>
