<svg width="15" height="16" viewBox="0 0 15 16" fill="none" xmlns="http://www.w3.org/2000/svg">
<path d="M6.25 14.25C6.08424 14.25 5.92527 14.1842 5.80806 14.0669C5.69085 13.9497 5.625 13.7908 5.625 13.625V7.375C5.625 6.125 6.25 5.03125 6.875 4.875V2.0625C6.875 1.97962 6.90792 1.90013 6.96653 1.84153C7.02513 1.78292 7.10462 1.75 7.1875 1.75H7.8125C7.89538 1.75 7.97487 1.78292 8.03347 1.84153C8.09208 1.90013 8.125 1.97962 8.125 2.0625V4.875C8.75 5.03125 9.375 6.125 9.375 7.375V13.625C9.375 13.7908 9.30915 13.9497 9.19194 14.0669C9.07473 14.1842 8.91576 14.25 8.75 14.25H6.25Z" fill="#989390"/>
<path d="M2.5 14.25C2.33424 14.25 2.17527 14.1842 2.05806 14.0669C1.94085 13.9497 1.875 13.7908 1.875 13.625V7.375C1.875 6.125 2.5 5.03125 3.125 4.875V2.0625C3.125 1.97962 3.15792 1.90013 3.21653 1.84153C3.27513 1.78292 3.35462 1.75 3.4375 1.75H4.0625C4.14538 1.75 4.22487 1.78292 4.28347 1.84153C4.34208 1.90013 4.375 1.97962 4.375 2.0625V4.875C5 5.03125 5.625 6.125 5.625 7.375V13.625C5.625 13.7908 5.55915 13.9497 5.44194 14.0669C5.32473 14.1842 5.16576 14.25 5 14.25H2.5Z" fill="#989390"/>
<path d="M11.875 14.25C11.7092 14.25 11.5503 14.1842 11.4331 14.0669C11.3158 13.9497 11.25 13.7908 11.25 13.625V7.375C11.25 6.125 11.875 5.03125 12.5 4.875V2.0625C12.5 1.97962 12.5329 1.90013 12.5915 1.84153C12.6501 1.78292 12.7296 1.75 12.8125 1.75H13.4375C13.5204 1.75 13.5999 1.78292 13.6585 1.84153C13.7171 1.90013 13.75 1.97962 13.75 2.0625V4.875C14.375 5.03125 15 6.125 15 7.375V13.625C15 13.7908 14.9342 13.9497 14.8169 14.0669C14.6997 14.1842 14.5408 14.25 14.375 14.25H11.875Z" fill="#989390"/>
</svg>
