<svg width="12" height="15" viewBox="0 0 12 15" fill="none" xmlns="http://www.w3.org/2000/svg">
<path d="M6 0C3.93225 0 2.25 1.68225 2.25 3.75V6H1.5C1.10218 6 0.720644 6.15804 0.43934 6.43934C0.158035 6.72064 0 7.10218 0 7.5V13.5C0 13.8978 0.158035 14.2794 0.43934 14.5607C0.720644 14.842 1.10218 15 1.5 15H10.5C10.8978 15 11.2794 14.842 11.5607 14.5607C11.842 14.2794 12 13.8978 12 13.5V7.5C12 7.10218 11.842 6.72064 11.5607 6.43934C11.2794 6.15804 10.8978 6 10.5 6H9.75V3.75C9.75 1.68225 8.06775 0 6 0ZM3.75 3.75C3.75 2.5095 4.7595 1.5 6 1.5C7.2405 1.5 8.25 2.5095 8.25 3.75V6H3.75V3.75ZM6.75 11.7922V13.5H5.25V11.7922C4.98779 11.6421 4.77724 11.416 4.64612 11.1438C4.515 10.8715 4.46946 10.566 4.51551 10.2673C4.56156 9.9687 4.69704 9.69103 4.90407 9.47095C5.11111 9.25086 5.37999 9.09869 5.67525 9.0345C5.89456 8.98601 6.12196 8.98736 6.34068 9.03846C6.5594 9.08956 6.76386 9.18911 6.93899 9.32975C7.11411 9.4704 7.25543 9.64856 7.35253 9.8511C7.44963 10.0536 7.50002 10.2754 7.5 10.5C7.49957 10.7623 7.43002 11.0199 7.29835 11.2467C7.16668 11.4736 6.97754 11.6618 6.75 11.7922Z" fill="black"/>
</svg>
