<svg width="110" height="33" viewBox="0 0 110 33" fill="none" xmlns="http://www.w3.org/2000/svg">
                        <path d="M0 5.5C0 4.04131 0.57946 2.64236 1.61091 1.61091C2.64236 0.579464 4.04131 0 5.5 0L60.5 0C71.5 0 81.125 5.5 82.5 11L107.25 11C107.979 11 108.679 11.2897 109.195 11.8055C109.71 12.3212 110 13.0207 110 13.75V19.25C110 19.9793 109.71 20.6788 109.195 21.1945C108.679 21.7103 107.979 22 107.25 22H82.5C81.125 27.5 71.5 33 60.5 33L5.5 33C4.04131 33 2.64236 32.4205 1.61091 31.3891C0.57946 30.3576 0 28.9587 0 27.5V5.5Z" fill="white"/>
                        <path d="M11.438 24C11.33 24 11.264 23.946 11.24 23.838L8.63 11.598V11.562C8.63 11.454 8.684 11.4 8.792 11.4H9.8C9.92 11.4 9.986 11.454 9.998 11.562L11.942 21.624C11.954 21.648 11.966 21.66 11.978 21.66C11.99 21.66 12.002 21.648 12.014 21.624L13.94 11.562C13.964 11.454 14.03 11.4 14.138 11.4H15.11C15.242 11.4 15.296 11.466 15.272 11.598L12.662 23.838C12.65 23.946 12.584 24 12.464 24H11.438ZM17.9262 24C17.8062 24 17.7462 23.94 17.7462 23.82V11.58C17.7462 11.46 17.8062 11.4 17.9262 11.4H18.8442C18.9642 11.4 19.0242 11.46 19.0242 11.58V23.82C19.0242 23.94 18.9642 24 18.8442 24H17.9262ZM27.1933 11.58C27.1933 11.46 27.2533 11.4 27.3733 11.4H28.2733C28.3933 11.4 28.4533 11.46 28.4533 11.58V23.82C28.4533 23.94 28.3933 24 28.2733 24H27.2113C27.1153 24 27.0493 23.952 27.0133 23.856L23.5033 14.55C23.4913 14.514 23.4733 14.502 23.4493 14.514C23.4253 14.514 23.4133 14.532 23.4133 14.568L23.4313 23.82C23.4313 23.94 23.3713 24 23.2513 24H22.3333C22.2133 24 22.1533 23.94 22.1533 23.82V11.58C22.1533 11.46 22.2133 11.4 22.3333 11.4H23.3773C23.4733 11.4 23.5393 11.448 23.5753 11.544L27.1033 20.868C27.1153 20.904 27.1333 20.922 27.1573 20.922C27.1813 20.91 27.1933 20.886 27.1933 20.85V11.58ZM31.7503 24C31.6303 24 31.5703 23.94 31.5703 23.82V11.58C31.5703 11.46 31.6303 11.4 31.7503 11.4H32.6683C32.7883 11.4 32.8483 11.46 32.8483 11.58V17.412C32.8483 17.448 32.8603 17.472 32.8843 17.484C32.9083 17.496 32.9263 17.484 32.9383 17.448L36.4123 11.526C36.4723 11.442 36.5443 11.4 36.6283 11.4H37.6363C37.7083 11.4 37.7563 11.424 37.7803 11.472C37.8043 11.508 37.7983 11.556 37.7623 11.616L34.9543 16.494C34.9303 16.542 34.9243 16.578 34.9363 16.602L38.0323 23.784L38.0503 23.856C38.0503 23.952 37.9963 24 37.8883 24H36.8623C36.7663 24 36.7003 23.952 36.6643 23.856L34.0723 17.736C34.0603 17.688 34.0303 17.688 33.9823 17.736L32.8663 19.464C32.8543 19.476 32.8483 19.506 32.8483 19.554V23.82C32.8483 23.94 32.7883 24 32.6683 24H31.7503ZM42.319 23.982C42.199 23.982 42.139 23.922 42.139 23.802V18.42C42.139 18.372 42.133 18.342 42.121 18.33L39.619 11.616L39.601 11.544C39.601 11.448 39.655 11.4 39.763 11.4H40.735C40.843 11.4 40.915 11.448 40.951 11.544L42.715 16.818C42.727 16.842 42.745 16.854 42.769 16.854C42.793 16.854 42.811 16.842 42.823 16.818L44.587 11.544C44.623 11.448 44.695 11.4 44.803 11.4H45.775C45.835 11.4 45.877 11.424 45.901 11.472C45.937 11.508 45.943 11.556 45.919 11.616L43.435 18.33C43.423 18.342 43.417 18.372 43.417 18.42V23.802C43.417 23.922 43.357 23.982 43.237 23.982H42.319ZM48.4748 24C48.3548 24 48.2948 23.94 48.2948 23.82V11.58C48.2948 11.46 48.3548 11.4 48.4748 11.4H49.3928C49.5128 11.4 49.5728 11.46 49.5728 11.58V22.812C49.5728 22.86 49.5968 22.884 49.6448 22.884H53.7668C53.8868 22.884 53.9468 22.944 53.9468 23.064V23.82C53.9468 23.94 53.8868 24 53.7668 24H48.4748ZM61.6775 12.336C61.6775 12.456 61.6175 12.516 61.4975 12.516H57.3215C57.2735 12.516 57.2495 12.54 57.2495 12.588V17.052C57.2495 17.1 57.2735 17.124 57.3215 17.124H59.9495C60.0695 17.124 60.1295 17.184 60.1295 17.304V18.078C60.1295 18.198 60.0695 18.258 59.9495 18.258H57.3215C57.2735 18.258 57.2495 18.282 57.2495 18.33V22.812C57.2495 22.86 57.2735 22.884 57.3215 22.884H61.4975C61.6175 22.884 61.6775 22.944 61.6775 23.064V23.82C61.6775 23.94 61.6175 24 61.4975 24H56.1515C56.0315 24 55.9715 23.94 55.9715 23.82V11.58C55.9715 11.46 56.0315 11.4 56.1515 11.4H61.4975C61.6175 11.4 61.6775 11.46 61.6775 11.58V12.336ZM69.2683 11.58C69.2683 11.46 69.3283 11.4 69.4483 11.4H70.3483C70.4683 11.4 70.5283 11.46 70.5283 11.58V23.82C70.5283 23.94 70.4683 24 70.3483 24H69.2863C69.1903 24 69.1243 23.952 69.0883 23.856L65.5783 14.55C65.5663 14.514 65.5483 14.502 65.5243 14.514C65.5003 14.514 65.4883 14.532 65.4883 14.568L65.5063 23.82C65.5063 23.94 65.4463 24 65.3263 24H64.4083C64.2883 24 64.2283 23.94 64.2283 23.82V11.58C64.2283 11.46 64.2883 11.4 64.4083 11.4H65.4523C65.5483 11.4 65.6143 11.448 65.6503 11.544L69.1783 20.868C69.1903 20.904 69.2083 20.922 69.2323 20.922C69.2563 20.91 69.2683 20.886 69.2683 20.85V11.58Z" fill="black"/>
                    </svg>