<svg width="20" height="23" viewBox="0 0 20 23" fill="none" xmlns="http://www.w3.org/2000/svg">
                        <path fill-rule="evenodd" clip-rule="evenodd" d="M13.6042 15.4158L18.0875 19.8992C18.2451 20.0569 18.3336 20.2707 18.3335 20.4936C18.3334 20.7166 18.2448 20.9303 18.0871 21.0879C17.9294 21.2455 17.7156 21.334 17.4927 21.3339C17.2697 21.3338 17.0559 21.2452 16.8984 21.0875L12.415 16.6042C11.0748 17.6422 9.38943 18.1307 7.7018 17.9703C6.01418 17.8098 4.45106 17.0125 3.33043 15.7405C2.20981 14.4685 1.61586 12.8173 1.66941 11.1229C1.72296 9.42856 2.41999 7.81821 3.6187 6.61949C4.81741 5.42078 6.42776 4.72375 8.12215 4.6702C9.81654 4.61665 11.4677 5.2106 12.7397 6.33123C14.0117 7.45185 14.809 9.01497 14.9695 10.7026C15.1299 12.3902 14.6414 14.0756 13.6034 15.4158H13.6042ZM8.33336 16.3333C9.65945 16.3333 10.9312 15.8065 11.8689 14.8689C12.8066 13.9312 13.3334 12.6594 13.3334 11.3333C13.3334 10.0072 12.8066 8.73547 11.8689 7.79779C10.9312 6.86011 9.65945 6.33332 8.33336 6.33332C7.00728 6.33332 5.73551 6.86011 4.79783 7.79779C3.86015 8.73547 3.33336 10.0072 3.33336 11.3333C3.33336 12.6594 3.86015 13.9312 4.79783 14.8689C5.73551 15.8065 7.00728 16.3333 8.33336 16.3333Z" fill="white"/>
                    </svg>