<svg width="15" height="16" viewBox="0 0 15 16" fill="none" xmlns="http://www.w3.org/2000/svg">
<path fill-rule="evenodd" clip-rule="evenodd" d="M10.2031 9.81187L13.5656 13.1744C13.6838 13.2926 13.7502 13.453 13.7501 13.6202C13.75 13.7874 13.6836 13.9477 13.5653 14.0659C13.447 14.1841 13.2866 14.2505 13.1194 14.2504C12.9522 14.2504 12.7919 14.1839 12.6737 14.0656L9.31123 10.7031C8.30605 11.4817 7.04202 11.848 5.77631 11.7277C4.51059 11.6074 3.33825 11.0094 2.49778 10.0554C1.65731 9.10136 1.21185 7.863 1.25201 6.59221C1.29217 5.32142 1.81495 4.11366 2.71398 3.21462C3.61301 2.31559 4.82078 1.79281 6.09157 1.75265C7.36236 1.71249 8.60072 2.15795 9.55473 2.99842C10.5087 3.83889 11.1067 5.01123 11.2271 6.27695C11.3474 7.54267 10.981 8.80669 10.2025 9.81187H10.2031ZM6.24998 10.5C7.24454 10.5 8.19836 10.1049 8.90163 9.40164C9.60489 8.69838 9.99998 7.74455 9.99998 6.74999C9.99998 5.75543 9.60489 4.8016 8.90163 4.09834C8.19836 3.39508 7.24454 2.99999 6.24998 2.99999C5.25541 2.99999 4.30159 3.39508 3.59833 4.09834C2.89507 4.8016 2.49998 5.75543 2.49998 6.74999C2.49998 7.74455 2.89507 8.69838 3.59833 9.40164C4.30159 10.1049 5.25541 10.5 6.24998 10.5Z" fill="#222222"/>
</svg>
