<svg width="634" height="1034" viewBox="0 0 634 1034" fill="none" xmlns="http://www.w3.org/2000/svg">
<path d="M263.933 160.828L308.385 147.656M271.71 193.062L315.943 182.957" stroke="#222222"/>
<ellipse cx="311.897" cy="165.343" rx="19.9076" ry="18.5" transform="rotate(-7.81141 311.897 165.343)" fill="#222222"/>
<ellipse cx="268.402" cy="176.862" rx="18.2935" ry="17" transform="rotate(-7.81141 268.402 176.862)" fill="#222222"/>
<ellipse cx="339.537" cy="157.009" rx="7.53261" ry="7" transform="rotate(-7.81141 339.537 157.009)" fill="#222222"/>
<rect width="27.9164" height="14.0358" transform="matrix(0.953929 -0.300033 0.324711 0.945813 310.508 158.778)" fill="#222222"/>
<rect width="48.3212" height="32.872" transform="matrix(0.954978 -0.296677 0.320893 0.947115 261.953 161.527)" fill="#222222"/>
<rect width="41.9426" height="8.95038" transform="matrix(0.975246 -0.221124 0.234366 0.972148 273.026 184.014)" fill="#222222"/>
<path d="M127.29 153.877L170.624 137.4M137.468 185.435L180.816 172.032" stroke="#222222"/>
<ellipse cx="175.457" cy="154.773" rx="19.9076" ry="18.5" transform="rotate(-12.1243 175.457 154.773)" fill="#222222"/>
<ellipse cx="132.951" cy="169.53" rx="18.2935" ry="17" transform="rotate(-12.1243 132.951 169.53)" fill="#222222"/>
<ellipse cx="202.392" cy="144.384" rx="7.53261" ry="7" transform="rotate(-12.1243 202.392 144.384)" fill="#222222"/>
<rect width="27.9164" height="14.0358" transform="matrix(0.928664 -0.370922 0.39492 0.918715 173.578 148.331)" fill="#222222"/>
<rect width="48.3212" height="32.872" transform="matrix(0.929962 -0.367655 0.391211 0.920301 125.367 154.723)" fill="#222222"/>
<rect width="41.9426" height="8.95038" transform="matrix(0.955855 -0.29384 0.306811 0.95177 138.1 176.314)" fill="#222222"/>
<path d="M180.388 160.896L223.289 143.32M191.368 192.185L234.36 177.68" stroke="#222222"/>
<ellipse cx="228.563" cy="160.563" rx="19.9076" ry="18.5" transform="rotate(-13.5855 228.563 160.563)" fill="#222222"/>
<ellipse cx="186.447" cy="176.399" rx="18.2935" ry="17" transform="rotate(-13.5855 186.447 176.399)" fill="#222222"/>
<ellipse cx="255.224" cy="149.491" rx="7.53261" ry="7" transform="rotate(-13.5855 255.224 149.491)" fill="#222222"/>
<rect width="27.9164" height="14.0358" transform="matrix(0.918904 -0.394482 0.418218 0.908347 226.52 154.171)" fill="#222222"/>
<rect width="48.3212" height="32.872" transform="matrix(0.920285 -0.391248 0.414551 0.910026 178.488 161.791)" fill="#222222"/>
<rect width="41.9426" height="8.95038" transform="matrix(0.948051 -0.318118 0.330981 0.943637 191.767 183.05)" fill="#222222"/>
<path d="M128.971 469.594L170.207 471.786M124.532 502.419L164.553 507.419" stroke="#222222"/>
<ellipse cx="167.147" cy="489.55" rx="17.6778" ry="18.5" transform="rotate(12.8132 167.147 489.55)" fill="#222222"/>
<ellipse cx="127.259" cy="486.118" rx="16.2444" ry="17" transform="rotate(12.8132 127.259 486.118)" fill="#222222"/>
<ellipse cx="192.837" cy="490.778" rx="6.68889" ry="7" transform="rotate(12.8132 192.837 490.778)" fill="#222222"/>
<rect width="24.8827" height="13.9803" transform="matrix(0.999406 0.0344688 -0.050553 0.998721 168.212 482.928)" fill="#222222"/>
<rect width="43.0635" height="32.7473" transform="matrix(0.999263 0.0383967 -0.0541577 0.998532 127.096 469.602)" fill="#222222"/>
<rect width="37.282" height="8.9409" transform="matrix(0.992055 0.125804 -0.134159 0.99096 128.673 494.352)" fill="#222222"/>
<path d="M194.971 467.594L236.207 469.786M190.532 500.419L230.553 505.419" stroke="#222222"/>
<ellipse cx="233.147" cy="487.55" rx="17.6778" ry="18.5" transform="rotate(12.8132 233.147 487.55)" fill="#222222"/>
<ellipse cx="193.259" cy="484.118" rx="16.2444" ry="17" transform="rotate(12.8132 193.259 484.118)" fill="#222222"/>
<ellipse cx="258.837" cy="488.778" rx="6.68889" ry="7" transform="rotate(12.8132 258.837 488.778)" fill="#222222"/>
<rect width="24.8827" height="13.9803" transform="matrix(0.999406 0.0344688 -0.050553 0.998721 234.212 480.928)" fill="#222222"/>
<rect width="43.0635" height="32.7473" transform="matrix(0.999263 0.0383967 -0.0541577 0.998532 193.096 467.602)" fill="#222222"/>
<rect width="37.282" height="8.9409" transform="matrix(0.992055 0.125804 -0.134159 0.99096 194.673 492.352)" fill="#222222"/>
<path d="M237.315 260.873L276.428 254.579M239.539 293.911L278.058 290.615" stroke="#222222"/>
<ellipse cx="277.014" cy="272.592" rx="16.9373" ry="18.5" transform="rotate(1.04754 277.014 272.592)" fill="#222222"/>
<ellipse cx="238.926" cy="277.397" rx="15.564" ry="17" transform="rotate(1.04754 238.926 277.397)" fill="#222222"/>
<ellipse cx="301.354" cy="268.537" rx="6.40872" ry="7" transform="rotate(1.04754 301.354 268.537)" fill="#222222"/>
<rect width="23.8781" height="13.9633" transform="matrix(0.984034 -0.177982 0.147125 0.989118 276.725 265.893)" fill="#222222"/>
<rect width="41.3222" height="32.7091" transform="matrix(0.984753 -0.173956 0.143695 0.989622 235.558 261.264)" fill="#222222"/>
<rect width="35.7355" height="8.93799" transform="matrix(0.99652 -0.0833476 0.0670218 0.997751 241.855 285.167)" fill="#222222"/>
<path d="M187.315 259.873L226.428 253.579M189.539 292.911L228.058 289.615" stroke="#222222"/>
<ellipse cx="227.014" cy="271.592" rx="16.9373" ry="18.5" transform="rotate(1.04754 227.014 271.592)" fill="#222222"/>
<ellipse cx="188.926" cy="276.397" rx="15.564" ry="17" transform="rotate(1.04754 188.926 276.397)" fill="#222222"/>
<ellipse cx="251.354" cy="267.537" rx="6.40872" ry="7" transform="rotate(1.04754 251.354 267.537)" fill="#222222"/>
<rect width="23.8781" height="13.9633" transform="matrix(0.984034 -0.177982 0.147125 0.989118 226.725 264.893)" fill="#222222"/>
<rect width="41.3222" height="32.7091" transform="matrix(0.984753 -0.173956 0.143695 0.989622 185.558 260.264)" fill="#222222"/>
<rect width="35.7355" height="8.93799" transform="matrix(0.99652 -0.0833476 0.0670218 0.997751 191.855 284.167)" fill="#222222"/>
<path d="M124.316 364.873L163.428 358.579M126.54 397.911L165.058 394.614" stroke="#222222"/>
<ellipse cx="164.015" cy="376.592" rx="16.9373" ry="18.5" transform="rotate(1.04754 164.015 376.592)" fill="#222222"/>
<ellipse cx="125.926" cy="381.397" rx="15.564" ry="17" transform="rotate(1.04754 125.926 381.397)" fill="#222222"/>
<ellipse cx="188.354" cy="372.537" rx="6.40872" ry="7" transform="rotate(1.04754 188.354 372.537)" fill="#222222"/>
<rect width="23.8781" height="13.9633" transform="matrix(0.984034 -0.177982 0.147125 0.989118 163.725 369.893)" fill="#222222"/>
<rect width="41.3222" height="32.7091" transform="matrix(0.984753 -0.173956 0.143695 0.989622 122.558 365.264)" fill="#222222"/>
<rect width="35.7355" height="8.93799" transform="matrix(0.99652 -0.0833476 0.0670218 0.997751 128.855 389.167)" fill="#222222"/>
<path d="M208.315 362.873L247.428 356.579M210.539 395.911L249.058 392.614" stroke="#222222"/>
<ellipse cx="248.014" cy="374.592" rx="16.9373" ry="18.5" transform="rotate(1.04754 248.014 374.592)" fill="#222222"/>
<ellipse cx="209.926" cy="379.397" rx="15.564" ry="17" transform="rotate(1.04754 209.926 379.397)" fill="#222222"/>
<ellipse cx="272.354" cy="370.537" rx="6.40872" ry="7" transform="rotate(1.04754 272.354 370.537)" fill="#222222"/>
<rect width="23.8781" height="13.9633" transform="matrix(0.984034 -0.177982 0.147125 0.989118 247.725 367.893)" fill="#222222"/>
<rect width="41.3222" height="32.7091" transform="matrix(0.984753 -0.173956 0.143695 0.989622 206.558 363.264)" fill="#222222"/>
<rect width="35.7355" height="8.93799" transform="matrix(0.99652 -0.0833476 0.0670218 0.997751 212.855 387.167)" fill="#222222"/>
<path d="M130.315 260.873L169.428 254.579M132.539 293.911L171.058 290.615" stroke="#222222"/>
<ellipse cx="170.014" cy="272.592" rx="16.9373" ry="18.5" transform="rotate(1.04754 170.014 272.592)" fill="#222222"/>
<ellipse cx="131.926" cy="277.397" rx="15.564" ry="17" transform="rotate(1.04754 131.926 277.397)" fill="#222222"/>
<ellipse cx="194.354" cy="268.537" rx="6.40872" ry="7" transform="rotate(1.04754 194.354 268.537)" fill="#222222"/>
<rect width="23.8781" height="13.9633" transform="matrix(0.984034 -0.177982 0.147125 0.989118 169.725 265.893)" fill="#222222"/>
<rect width="41.3222" height="32.7091" transform="matrix(0.984753 -0.173956 0.143695 0.989622 128.558 261.264)" fill="#222222"/>
<rect width="35.7355" height="8.93799" transform="matrix(0.99652 -0.0833476 0.0670218 0.997751 134.855 285.167)" fill="#222222"/>
<path d="M299.836 910.003C297.938 910.597 295.883 910.414 294.123 909.495C292.362 908.575 291.04 906.995 290.448 905.101L268.107 833.695C263.639 819.414 266.883 804.68 273.479 800.656L263.426 768.524C263.129 767.577 263.222 766.551 263.684 765.671C264.145 764.792 264.937 764.131 265.886 763.834L273.04 761.596C273.989 761.299 275.016 761.391 275.897 761.85C276.777 762.31 277.438 763.1 277.734 764.047L287.788 796.18C295.501 795.726 306.564 805.984 311.033 820.265L333.373 891.671C333.966 893.564 333.78 895.617 332.858 897.375C331.935 899.134 330.351 900.456 328.453 901.05L299.836 910.003Z" fill="#222222"/>
<path d="M252.836 920.003C250.938 920.597 248.883 920.414 247.123 919.495C245.362 918.575 244.04 916.995 243.448 915.101L221.107 843.695C216.639 829.414 219.883 814.68 226.479 810.656L216.426 778.524C216.129 777.577 216.222 776.551 216.684 775.671C217.145 774.792 217.937 774.131 218.886 773.834L226.04 771.596C226.989 771.299 228.016 771.391 228.897 771.85C229.777 772.31 230.438 773.1 230.734 774.047L240.788 806.18C248.501 805.726 259.564 815.984 264.033 830.265L286.373 901.671C286.966 903.564 286.78 905.617 285.858 907.375C284.935 909.134 283.351 910.456 281.453 911.05L252.836 920.003Z" fill="#222222"/>
<path d="M210.836 928.003C208.938 928.597 206.883 928.414 205.123 927.495C203.362 926.575 202.04 924.995 201.448 923.101L179.107 851.695C174.639 837.414 177.883 822.68 184.479 818.656L174.426 786.524C174.129 785.577 174.222 784.551 174.684 783.671C175.145 782.792 175.937 782.131 176.886 781.834L184.04 779.596C184.989 779.299 186.016 779.391 186.897 779.85C187.777 780.31 188.438 781.1 188.734 782.047L198.788 814.18C206.501 813.726 217.564 823.984 222.033 838.265L244.373 909.671C244.966 911.564 244.78 913.617 243.858 915.375C242.935 917.134 241.351 918.456 239.453 919.05L210.836 928.003Z" fill="#222222"/>
<path d="M162.836 936.003C160.938 936.597 158.883 936.414 157.123 935.495C155.362 934.575 154.04 932.995 153.448 931.101L131.107 859.695C126.639 845.414 129.883 830.68 136.479 826.656L126.426 794.524C126.129 793.577 126.222 792.551 126.684 791.671C127.145 790.792 127.937 790.131 128.886 789.834L136.04 787.596C136.989 787.299 138.016 787.391 138.897 787.85C139.777 788.31 140.438 789.1 140.734 790.047L150.788 822.18C158.501 821.726 169.564 831.984 174.033 846.265L196.373 917.671C196.966 919.564 196.78 921.617 195.858 923.375C194.935 925.134 193.351 926.456 191.453 927.05L162.836 936.003Z" fill="#222222"/>
<path d="M131.646 570.857L174.434 588.705M117.327 600.765L158.01 620.853" stroke="#222222"/>
<ellipse cx="165.992" cy="604.639" rx="19.9076" ry="18.5" transform="rotate(31.3361 165.992 604.639)" fill="#222222"/>
<ellipse cx="124.989" cy="586.112" rx="18.2935" ry="17" transform="rotate(31.3361 124.989 586.112)" fill="#222222"/>
<ellipse cx="192.689" cy="615.626" rx="7.53261" ry="7" transform="rotate(31.3361 192.689 615.626)" fill="#222222"/>
<rect width="27.9164" height="14.0358" transform="matrix(0.92921 0.369552 -0.34529 0.938496 169.06 598.671)" fill="#222222"/>
<rect width="48.3212" height="32.872" transform="matrix(0.927905 0.372817 -0.349073 0.937096 129.669 570.149)" fill="#222222"/>
<rect width="41.9426" height="8.95038" transform="matrix(0.895925 0.444205 -0.431981 0.901883 124.059 594.579)" fill="#222222"/>
<path d="M138.136 677.162L173.173 707.523M115.163 701.073L147.499 732.902" stroke="#222222"/>
<ellipse cx="160.162" cy="720.008" rx="19.9076" ry="18.5" transform="rotate(49.6049 160.162 720.008)" fill="#222222"/>
<ellipse cx="127.032" cy="689.561" rx="18.2935" ry="17" transform="rotate(49.6049 127.032 689.561)" fill="#222222"/>
<ellipse cx="182.069" cy="738.809" rx="7.53261" ry="7" transform="rotate(49.6049 182.069 738.809)" fill="#222222"/>
<rect width="27.9164" height="14.0358" transform="matrix(0.766529 0.64221 -0.622082 0.782952 164.945 715.302)" fill="#222222"/>
<rect width="48.3212" height="32.872" transform="matrix(0.764266 0.644901 -0.625235 0.780437 136.481 675.869)" fill="#222222"/>
<rect width="41.9426" height="8.95038" transform="matrix(0.71152 0.702666 -0.692925 0.721009 123.495 697.309)" fill="#222222"/>
<path d="M183.322 670.156L220.727 697.547M162.384 695.868L197.217 724.942" stroke="#222222"/>
<ellipse cx="208.781" cy="711.055" rx="19.9076" ry="18.5" transform="rotate(44.9085 208.781 711.055)" fill="#222222"/>
<ellipse cx="173.271" cy="683.423" rx="18.2935" ry="17" transform="rotate(44.9085 173.271 683.423)" fill="#222222"/>
<ellipse cx="232.155" cy="727.999" rx="7.53261" ry="7" transform="rotate(44.9085 232.155 727.999)" fill="#222222"/>
<rect width="27.9164" height="14.0358" transform="matrix(0.816537 0.577292 -0.555887 0.831257 213.164 705.973)" fill="#222222"/>
<rect width="48.3212" height="32.872" transform="matrix(0.814503 0.58016 -0.559236 0.829009 181.566 669.003)" fill="#222222"/>
<rect width="41.9426" height="8.95038" transform="matrix(0.766663 0.64205 -0.631565 0.775323 170.38 691.434)" fill="#222222"/>
<path d="M265.161 669.077L307.528 687.905M250.158 698.648L290.368 719.666" stroke="#222222"/>
<ellipse cx="298.721" cy="703.641" rx="19.9076" ry="18.5" transform="rotate(32.6549 298.721 703.641)" fill="#222222"/>
<ellipse cx="258.155" cy="684.175" rx="18.2935" ry="17" transform="rotate(32.6549 258.155 684.175)" fill="#222222"/>
<ellipse cx="325.158" cy="715.239" rx="7.53261" ry="7" transform="rotate(32.6549 325.158 715.239)" fill="#222222"/>
<rect width="27.9164" height="14.0358" transform="matrix(0.920459 0.390839 -0.366797 0.930301 301.925 697.745)" fill="#222222"/>
<rect width="48.3212" height="32.872" transform="matrix(0.919079 0.394073 -0.370547 0.928814 263.201 668.324)" fill="#222222"/>
<rect width="41.9426" height="8.95038" transform="matrix(0.885465 0.464707 -0.452622 0.891702 257.031 692.618)" fill="#222222"/>
<path d="M182.646 565.857L225.434 583.705M168.327 595.765L209.01 615.853" stroke="#222222"/>
<ellipse cx="216.992" cy="599.639" rx="19.9076" ry="18.5" transform="rotate(31.3361 216.992 599.639)" fill="#222222"/>
<ellipse cx="175.989" cy="581.112" rx="18.2935" ry="17" transform="rotate(31.3361 175.989 581.112)" fill="#222222"/>
<ellipse cx="243.689" cy="610.626" rx="7.53261" ry="7" transform="rotate(31.3361 243.689 610.626)" fill="#222222"/>
<rect width="27.9164" height="14.0358" transform="matrix(0.92921 0.369552 -0.34529 0.938496 220.06 593.671)" fill="#222222"/>
<rect width="48.3212" height="32.872" transform="matrix(0.927905 0.372817 -0.349073 0.937096 180.669 565.149)" fill="#222222"/>
<rect width="41.9426" height="8.95038" transform="matrix(0.895925 0.444205 -0.431981 0.901883 175.059 589.579)" fill="#222222"/>
<path d="M232.646 561.857L275.434 579.705M218.327 591.765L259.01 611.853" stroke="#222222"/>
<ellipse cx="266.992" cy="595.639" rx="19.9076" ry="18.5" transform="rotate(31.3361 266.992 595.639)" fill="#222222"/>
<ellipse cx="225.989" cy="577.112" rx="18.2935" ry="17" transform="rotate(31.3361 225.989 577.112)" fill="#222222"/>
<ellipse cx="293.689" cy="606.626" rx="7.53261" ry="7" transform="rotate(31.3361 293.689 606.626)" fill="#222222"/>
<rect width="27.9164" height="14.0358" transform="matrix(0.92921 0.369552 -0.34529 0.938496 270.06 589.671)" fill="#222222"/>
<rect width="48.3212" height="32.872" transform="matrix(0.927905 0.372817 -0.349073 0.937096 230.669 561.149)" fill="#222222"/>
<rect width="41.9426" height="8.95038" transform="matrix(0.895925 0.444205 -0.431981 0.901883 225.059 585.579)" fill="#222222"/>
<path d="M278.646 557.857L321.434 575.705M264.327 587.765L305.01 607.853" stroke="#222222"/>
<ellipse cx="312.993" cy="591.639" rx="19.9076" ry="18.5" transform="rotate(31.3361 312.993 591.639)" fill="#222222"/>
<ellipse cx="271.989" cy="573.112" rx="18.2935" ry="17" transform="rotate(31.3361 271.989 573.112)" fill="#222222"/>
<ellipse cx="339.689" cy="602.626" rx="7.53261" ry="7" transform="rotate(31.3361 339.689 602.626)" fill="#222222"/>
<rect width="27.9164" height="14.0358" transform="matrix(0.92921 0.369552 -0.34529 0.938496 316.06 585.671)" fill="#222222"/>
<rect width="48.3212" height="32.872" transform="matrix(0.927905 0.372817 -0.349073 0.937096 276.669 557.149)" fill="#222222"/>
<rect width="41.9426" height="8.95038" transform="matrix(0.895925 0.444205 -0.431981 0.901883 271.059 581.579)" fill="#222222"/>
<path d="M266.971 465.594L308.207 467.786M262.532 498.419L302.553 503.42" stroke="#222222"/>
<ellipse cx="305.147" cy="485.55" rx="17.6778" ry="18.5" transform="rotate(12.8132 305.147 485.55)" fill="#222222"/>
<ellipse cx="265.259" cy="482.118" rx="16.2444" ry="17" transform="rotate(12.8132 265.259 482.118)" fill="#222222"/>
<ellipse cx="330.837" cy="486.778" rx="6.68889" ry="7" transform="rotate(12.8132 330.837 486.778)" fill="#222222"/>
<rect width="24.8827" height="13.9803" transform="matrix(0.999406 0.0344688 -0.050553 0.998721 306.212 478.928)" fill="#222222"/>
<rect width="43.0635" height="32.7473" transform="matrix(0.999263 0.0383967 -0.0541577 0.998532 265.096 465.602)" fill="#222222"/>
<rect width="37.282" height="8.9409" transform="matrix(0.992055 0.125804 -0.134159 0.99096 266.673 490.352)" fill="#222222"/>
<line x1="358.358" y1="53.5594" x2="626.358" y2="3.55937" stroke="#222222" stroke-width="7"/>
<line x1="84.5" y1="28.9948" x2="86.487" y2="985.759" stroke="#222222" stroke-width="5"/>
<line y1="-2.5" x2="811.71" y2="-2.5" transform="matrix(0.00123197 0.999999 -0.999999 0.00121606 0 78.6762)" stroke="#222222" stroke-width="5"/>
<line x1="358.5" y1="49.864" x2="358.5" y2="937.081" stroke="#222222" stroke-width="5"/>
<line y1="-2.5" x2="277.206" y2="-2.5" transform="matrix(0.995649 0.0931856 -0.0943935 0.995535 82 29)" stroke="#222222" stroke-width="5"/>
<line y1="-2.5" x2="278.976" y2="-2.5" transform="matrix(0.985748 -0.168227 0.170364 0.985381 86 986)" stroke="#222222" stroke-width="5"/>
<line y1="-2.5" x2="97.9916" y2="-2.5" transform="matrix(0.836806 -0.547499 0.552484 0.833524 3 82.6503)" stroke="#222222" stroke-width="5"/>
<line y1="-2.5" x2="126.436" y2="-2.5" transform="matrix(0.656459 0.754361 -0.758566 0.651596 1 890.386)" stroke="#222222" stroke-width="5"/>
<line y1="-2.5" x2="258.197" y2="-2.5" transform="matrix(0.995362 0.0961981 -0.0974443 0.995241 99 46.8835)" stroke="#222222" stroke-width="5"/>
<line y1="-2.5" x2="259.221" y2="-2.5" transform="matrix(0.987576 -0.157142 0.159146 0.987255 102 964.9)" stroke="#222222" stroke-width="5"/>
<rect x="2.24748" y="2.72642" width="80.9949" height="21.8268" transform="matrix(0.995455 0.0952307 -0.0964647 0.995336 190.804 50.6562)" stroke="#222222" stroke-width="5"/>
<path d="M102 165L346.232 177.509" stroke="#222222" stroke-width="9"/>
<line x1="129.906" y1="196.675" x2="205.906" y2="171.675" stroke="#222222" stroke-width="7"/>
<line x1="101.776" y1="191.721" x2="168.776" y2="166.721" stroke="#222222" stroke-width="7"/>
<line x1="173.918" y1="199.671" x2="253.918" y2="173.671" stroke="#222222" stroke-width="7"/>
<line x1="213.971" y1="201.655" x2="304.971" y2="173.655" stroke="#222222" stroke-width="7"/>
<line x1="249.118" y1="203.613" x2="345.118" y2="178.613" stroke="#222222" stroke-width="7"/>
<line x1="101.188" y1="195.505" x2="250.188" y2="203.505" stroke="#222222" stroke-width="7"/>
<line x1="103.124" y1="279.502" x2="356.124" y2="286.502" stroke="#222222" stroke-width="9"/>
<line x1="102.964" y1="396.5" x2="355.964" y2="394.5" stroke="#222222" stroke-width="9"/>
<line x1="102.823" y1="512.503" x2="356.823" y2="502.503" stroke="#222222" stroke-width="9"/>
<line x1="102.881" y1="489.502" x2="249.881" y2="484.502" stroke="#222222" stroke-width="7"/>
<line x1="162.192" y1="487.709" x2="220.192" y2="508.709" stroke="#222222" stroke-width="7"/>
<line x1="130.323" y1="488.76" x2="179.323" y2="508.76" stroke="#222222" stroke-width="7"/>
<line x1="100.728" y1="489.956" x2="137.728" y2="510.956" stroke="#222222" stroke-width="7"/>
<line x1="190.694" y1="486.569" x2="279.694" y2="504.569" stroke="#222222" stroke-width="7"/>
<line x1="246.504" y1="484.536" x2="356.504" y2="500.536" stroke="#222222" stroke-width="7"/>
<line x1="102.456" y1="593.849" x2="159.629" y2="623.902" stroke="#222222" stroke-width="7"/>
<line x1="137.565" y1="588.87" x2="203.565" y2="621.87" stroke="#222222" stroke-width="7"/>
<line x1="175.352" y1="586.772" x2="249.352" y2="617.772" stroke="#222222" stroke-width="7"/>
<line x1="102.414" y1="621.586" x2="111.414" y2="630.586" stroke="#222222" stroke-width="4"/>
<line x1="217.251" y1="583.731" x2="298.251" y2="614.731" stroke="#222222" stroke-width="7"/>
<line x1="242.863" y1="581.608" x2="356.863" y2="610.608" stroke="#222222" stroke-width="7"/>
<line x1="102.682" y1="629.511" x2="356.682" y2="611.511" stroke="#222222" stroke-width="9"/>
<line x1="102.78" y1="590.507" x2="245.78" y2="581.507" stroke="#222222" stroke-width="7"/>
<line x1="258.289" y1="678.746" x2="359.289" y2="718.746" stroke="#222222" stroke-width="7"/>
<line x1="208.537" y1="681.856" x2="298.537" y2="725.856" stroke="#222222" stroke-width="7"/>
<line x1="170.668" y1="685.923" x2="253.668" y2="730.923" stroke="#222222" stroke-width="7"/>
<line x1="138.01" y1="689.135" x2="205.01" y2="736.135" stroke="#222222" stroke-width="7"/>
<line x1="103.399" y1="692.451" x2="154.399" y2="740.451" stroke="#222222" stroke-width="7"/>
<line x1="102.768" y1="737.232" x2="111.768" y2="746.232" stroke="#222222" stroke-width="5"/>
<line x1="101.563" y1="746.521" x2="357.563" y2="721.521" stroke="#222222" stroke-width="9"/>
<line x1="100.715" y1="691.512" x2="259.715" y2="678.512" stroke="#222222" stroke-width="7"/>
<line y1="-2.5" x2="922.986" y2="-2.5" transform="matrix(0.00216688 0.999998 -0.999998 0.00213891 98 41.9158)" stroke="#222222" stroke-width="5"/>
<line x1="288.621" y1="787.301" x2="341.621" y2="900.301" stroke="#222222" stroke-width="8"/>
<line x1="246.181" y1="794.335" x2="291.181" y2="907.335" stroke="#222222" stroke-width="9"/>
<line x1="210.25" y1="800.522" x2="250.25" y2="915.522" stroke="#222222" stroke-width="9"/>
<line x1="164.269" y1="802.577" x2="204.269" y2="922.577" stroke="#222222" stroke-width="9"/>
<line x1="115.743" y1="808.419" x2="156.743" y2="931.419" stroke="#222222" stroke-width="10"/>
<line x1="101.867" y1="911.282" x2="111.867" y2="937.282" stroke="#222222" stroke-width="4"/>
<line x1="103.863" y1="925.105" x2="108.863" y2="941.105" stroke="#222222" stroke-width="6"/>
<line x1="103.593" y1="811.524" x2="291.593" y2="789.524" stroke="#222222" stroke-width="7"/>
<line x1="104.298" y1="940.555" x2="357.438" y2="900.555" stroke="#222222" stroke-width="9"/>
<line x1="99.0473" y1="297.5" x2="246.047" y2="299.487" stroke="#222222" stroke-width="7"/>
<line x1="245.62" y1="299.521" x2="355.62" y2="287.521" stroke="#222222" stroke-width="7"/>
<line x1="214.106" y1="298.616" x2="267.106" y2="284.616" stroke="#222222" stroke-width="7"/>
<line x1="179.659" y1="298.767" x2="220.659" y2="281.767" stroke="#222222" stroke-width="7"/>
<line x1="141.353" y1="297.912" x2="171.353" y2="281.912" stroke="#222222" stroke-width="7"/>
<line x1="104.353" y1="295.912" x2="134.353" y2="279.912" stroke="#222222" stroke-width="7"/>
<line x1="623.5" y1="0.978927" x2="629.714" y2="1032.98" stroke="#222222" stroke-width="7"/>
<line x1="357.158" y1="935.697" x2="628.158" y2="1030.7" stroke="#222222" stroke-width="7"/>
<rect x="357.613" y="84.0151" width="270.616" height="12.8079" transform="rotate(-10.4954 357.613 84.0151)" fill="#222222"/>
<rect x="357" y="72.2946" width="270.616" height="12.8079" transform="rotate(-10.4954 357 72.2946)" fill="#222222"/>
<rect x="357.069" y="55.2682" width="270.616" height="17.9198" transform="rotate(-10.4954 357.069 55.2682)" fill="#222222"/>
<line x1="618.977" y1="5.69589" x2="622.977" y2="31.6959" stroke="#222222" stroke-width="4"/>
</svg>
